<svg xmlns="http://www.w3.org/2000/svg" xmlns:xlink="http://www.w3.org/1999/xlink" version="1.1" id="Layer_1" x="0px" y="0px" style="enable-background:new 0 0 1190.55 841.89;" xml:space="preserve" viewBox="137.32 267.26 827.28 292.6">
<style type="text/css">
	.st0{fill:#ED1C24;}
	.st1{fill:#FFFFFF;}
	.st2{fill:#432425;}
</style>
<g>
	<rect x="137.32" y="267.26" class="st0" width="292.6" height="292.6"/>
	<g>
		<path class="st1" d="M206.34,355.91c-4.53-4.79-6.15-15.59,2.23-25.89c10.24-12.64,24.77-16.51,26.94-6.67    c2.6,9.43,0,16.01-5.84,23.29c-3.08,3.7-6.59,7.08-9.11,9.28C216.34,359.73,210.83,360.64,206.34,355.91 M222.15,488.69    c-11.68-1.91-13.58-7.63-15.28-19.04c-4.28-26.22,36.96-115.57,40.05-122.5c1.42-3.54,14.78-30.99,23.11-35.25    c3.1-1.54,4.74-0.96,7.02,1.22c5.18,4.98,8.78,10.2,10.15,15.72c1.04,4.22,0.36,8.35-3.06,14.7    c-2.63,5.02-10.99,22.71-13.43,28.65c-11.13,27.13-27.38,61.92-35.2,90.31c-1.41,4.94-4.42,15.87-7.8,22.08    C225.9,487.91,224.56,489.08,222.15,488.69 M271.7,489.67c-5.43-1.82-10.41-8.15-12.52-12.98c-1.18-2.62-1.11-4.81-0.9-7.56    c0.77-11.88,5.19-34.21,15.32-61.43c11.96-31.92,28.13-64.98,44.11-87.67c3.23-4.49,6.75-3.35,10.47-0.6    c5.31,3.92,8.98,7.53,10.46,11.37c2.51,6.48-1.58,17.53-7.14,28.29c-14.76,28.47-27.62,58.68-37.78,89.13    c-2.66,7.92-9.75,29.28-13.39,37.98C278.5,490.55,276.15,490.97,271.7,489.67 M285.72,527.4c11.32-5.76,60.36-44.09,60.36-51.55    c-2.99,1.44-11.18,5.5-17.91,6.63c-5.92,0.94-8.61-1.07-12.54-5.19c-4.29-4.44-9.16-10.95-9.16-16.05    c0-7.59,6.47-26.85,11.5-37.35c7.1-15.43,20.32-37.98,27.07-45.18c1.17-1.32,2-1.79,3.87-1.79c6.45,0,13.67,10.92,16.19,15.27    c5.39,8.5-18.25,38.47-23.46,48.5c-3.35,6.46-7.94,14.18-5.23,16.39c1.15,0.89,2.29,0.8,3.48,0.09c4.2-2.64,8.34-6.02,11.8-9.54    c8.61-8.85,21.97-26.49,35.46-51.41c1.22-2.15,5.47-9.46,8.75-9.81c1.15-0.09,1.97,0.77,2.75,1.44    c4.66,3.81,11.74,10.37,12.01,13.9c0.06,1.95-1.74,8.72-4.28,16.87c-6.57,21.22-16.99,39.94-30.81,55.41    c-17.48,19.51-39.83,34.14-61.21,47.05c-2.97,1.82-13.36,7.61-19,9.34c-2.05,0.62-4.06,0.48-6.15,0.33    c-2.01-0.09-3.65-0.41-4.46-1.01C283.68,528.91,284.75,527.93,285.72,527.4 M157.1,472.71c-0.94-11.75,2.37-19.29,11.17-46.69    c3.08-10.2,9.51-25.72,11.23-29.76c4.1-9.93,11.93-26.72,24.88-26.83c3.43-0.07,8.37,4.31,9.2,7.5c1.12,3.61-4,18.91-5.29,22.4    c-6.27,17.69-15.25,38.39-22.18,68.42c-0.5,2.87-4,13.98-6.15,18.45c-0.58,1.21-0.96,1.87-2.34,2.15    c-1.93,0.41-5.44,0.34-8.24,0.05C161.83,487.69,157.58,479.67,157.1,472.71"/>
		<path class="st1" d="M398.65,486.08c0,2.96-1.24,5.67-3.23,7.61c-2,1.98-4.76,2.98-7.72,2.98c-2.97,0-5.73-1-7.71-2.98    c-2.05-1.94-3.26-4.65-3.26-7.61v-0.21c0-3.02,1.21-5.69,3.26-7.45c1.98-1.98,4.74-3.21,7.71-3.21c2.96,0,5.72,1.23,7.72,3.21    c1.99,1.76,3.23,4.44,3.23,7.45V486.08z M396.37,477.46c-2.24-2.25-5.17-3.69-8.68-3.69c-3.49,0-6.48,1.44-8.72,3.69    c-2.25,2.21-3.5,5.13-3.5,8.41v0.21c0,3.17,1.25,6.15,3.5,8.38c2.24,2.22,5.23,3.66,8.72,3.66c3.51,0,6.44-1.44,8.68-3.66    c2.28-2.22,3.51-5.2,3.51-8.38v-0.21C399.87,482.59,398.65,479.67,396.37,477.46"/>
		<path class="st1" d="M389.93,484.59c-0.47,0.29-1,0.5-1.97,0.5h-0.76h-2.02v-4.44h2.02h0.76c0.97,0,1.5,0.27,1.97,0.5    c0.52,0.28,1.01,0.99,1.01,1.72C390.93,483.62,390.44,484.4,389.93,484.59 M392.64,485.08c0.56-0.68,0.77-1.46,0.77-2.45    c0-1.22-0.54-2.23-1.22-2.7c-1-0.77-2.52-1.05-4.24-1.05h-0.27h-5.23v13.87h2.72v-5.97h2.51l0.27,0.48l2.49,5.49h2.97l-2.97-6.41    C391.4,486.08,392.19,485.87,392.64,485.08"/>
	</g>
</g>
<g>
	<g>
		<g>
			<path class="st2" d="M572.04,437.55l-1.73,1.52c-0.61-0.84-1.22-1.26-1.85-1.26c-0.31,0-0.56,0.08-0.75,0.25     c-0.19,0.16-0.29,0.35-0.29,0.55c0,0.2,0.07,0.4,0.21,0.58c0.19,0.24,0.76,0.77,1.71,1.57c0.89,0.74,1.43,1.21,1.62,1.41     c0.47,0.48,0.81,0.93,1,1.37c0.2,0.44,0.3,0.91,0.3,1.43c0,1-0.35,1.83-1.04,2.49c-0.69,0.65-1.6,0.98-2.72,0.98     c-0.87,0-1.63-0.21-2.28-0.64c-0.65-0.43-1.2-1.1-1.66-2.01l1.96-1.18c0.59,1.08,1.27,1.62,2.03,1.62c0.4,0,0.74-0.12,1.01-0.35     c0.27-0.23,0.41-0.5,0.41-0.81c0-0.28-0.1-0.55-0.31-0.83c-0.21-0.28-0.66-0.7-1.36-1.27c-1.33-1.09-2.19-1.93-2.58-2.52     s-0.58-1.18-0.58-1.77c0-0.85,0.32-1.58,0.97-2.18c0.65-0.61,1.45-0.91,2.39-0.91c0.61,0,1.19,0.14,1.75,0.42     C570.8,436.29,571.4,436.8,572.04,437.55z"/>
			<path class="st2" d="M576.55,435.89h2.36v4.62H583v-4.62h2.35v12.24H583v-5.37h-4.09v5.37h-2.36V435.89z"/>
			<path class="st2" d="M593.96,435.89h2.36l4.71,12.24h-2.42l-0.96-2.52h-4.99l-1,2.52h-2.42L593.96,435.89z M595.16,439.13     l-1.64,4.2h3.27L595.16,439.13z"/>
			<path class="st2" d="M604.91,435.89h2.47c1.34,0,2.3,0.12,2.89,0.37c0.59,0.25,1.06,0.65,1.4,1.2c0.34,0.55,0.51,1.21,0.51,1.98     c0,0.85-0.22,1.56-0.67,2.13c-0.45,0.57-1.05,0.96-1.82,1.18c-0.45,0.13-1.27,0.19-2.45,0.19v5.18h-2.33V435.89z M607.23,440.67     h0.74c0.58,0,0.99-0.04,1.21-0.13c0.23-0.08,0.41-0.22,0.54-0.41c0.13-0.19,0.2-0.42,0.2-0.7c0-0.47-0.18-0.82-0.55-1.04     c-0.27-0.16-0.76-0.24-1.48-0.24h-0.66V440.67z"/>
			<path class="st2" d="M616.54,435.89h6.68v2.28h-4.37v2.21h4.37v2.24h-4.37v3.22h4.37v2.29h-6.68V435.89z"/>
			<path class="st2" d="M633.9,437.55l-1.73,1.52c-0.61-0.84-1.22-1.26-1.85-1.26c-0.31,0-0.56,0.08-0.75,0.25     c-0.19,0.16-0.29,0.35-0.29,0.55c0,0.2,0.07,0.4,0.21,0.58c0.19,0.24,0.76,0.77,1.71,1.57c0.89,0.74,1.43,1.21,1.62,1.41     c0.47,0.48,0.81,0.93,1,1.37c0.2,0.44,0.3,0.91,0.3,1.43c0,1-0.35,1.83-1.04,2.49c-0.69,0.65-1.6,0.98-2.72,0.98     c-0.87,0-1.63-0.21-2.28-0.64c-0.65-0.43-1.2-1.1-1.66-2.01l1.96-1.18c0.59,1.08,1.27,1.62,2.03,1.62c0.4,0,0.74-0.12,1.01-0.35     c0.27-0.23,0.41-0.5,0.41-0.81c0-0.28-0.1-0.55-0.31-0.83c-0.21-0.28-0.66-0.7-1.36-1.27c-1.33-1.09-2.19-1.93-2.58-2.52     s-0.58-1.18-0.58-1.77c0-0.85,0.32-1.58,0.97-2.18c0.65-0.61,1.45-0.91,2.39-0.91c0.61,0,1.19,0.14,1.75,0.42     C632.66,436.29,633.26,436.8,633.9,437.55z"/>
			<path class="st2" d="M644.06,435.89h6.76v2.3h-2.23v9.94h-2.36v-9.94h-2.17V435.89z"/>
			<path class="st2" d="M654.49,435.89h2.36v4.62h4.09v-4.62h2.35v12.24h-2.35v-5.37h-4.09v5.37h-2.36V435.89z"/>
			<path class="st2" d="M668.18,435.89h6.68v2.28h-4.37v2.21h4.37v2.24h-4.37v3.22h4.37v2.29h-6.68V435.89z"/>
			<path class="st2" d="M697.21,438.04l-1.63,1.55c-1.11-1.17-2.36-1.76-3.74-1.76c-1.17,0-2.15,0.4-2.96,1.2     c-0.8,0.8-1.2,1.78-1.2,2.96c0,0.82,0.18,1.54,0.53,2.17c0.35,0.63,0.86,1.13,1.5,1.49c0.65,0.36,1.37,0.54,2.16,0.54     c0.68,0,1.29-0.13,1.85-0.38c0.56-0.25,1.18-0.71,1.85-1.38l1.58,1.65c-0.9,0.88-1.76,1.49-2.56,1.84     c-0.8,0.34-1.72,0.51-2.75,0.51c-1.9,0-3.46-0.6-4.67-1.81c-1.21-1.21-1.82-2.75-1.82-4.64c0-1.22,0.28-2.3,0.83-3.25     c0.55-0.95,1.34-1.71,2.37-2.29c1.03-0.58,2.14-0.87,3.32-0.87c1.01,0,1.98,0.21,2.92,0.64     C695.72,436.64,696.53,437.25,697.21,438.04z"/>
			<path class="st2" d="M707.1,435.58c1.73,0,3.22,0.63,4.47,1.88c1.25,1.25,1.87,2.78,1.87,4.59c0,1.79-0.61,3.3-1.84,4.53     c-1.23,1.24-2.72,1.86-4.48,1.86c-1.84,0-3.36-0.64-4.58-1.91c-1.22-1.27-1.82-2.78-1.82-4.53c0-1.17,0.28-2.25,0.85-3.23     s1.34-1.76,2.34-2.33C704.89,435.87,705.96,435.58,707.1,435.58z M707.08,437.86c-1.13,0-2.09,0.39-2.86,1.18     c-0.77,0.79-1.16,1.79-1.16,3c0,1.35,0.49,2.42,1.46,3.21c0.76,0.62,1.62,0.92,2.6,0.92c1.11,0,2.05-0.4,2.82-1.2     c0.78-0.8,1.17-1.78,1.17-2.95c0-1.16-0.39-2.15-1.17-2.96C709.15,438.26,708.2,437.86,707.08,437.86z"/>
			<path class="st2" d="M717.75,435.89h6.07v2.27h-3.76v2.22h3.76v2.24h-3.76v5.51h-2.31V435.89z"/>
			<path class="st2" d="M728,435.89h6.07v2.27h-3.76v2.22h3.76v2.24h-3.76v5.51H728V435.89z"/>
			<path class="st2" d="M738.24,435.89h6.68v2.28h-4.37v2.21h4.37v2.24h-4.37v3.22h4.37v2.29h-6.68V435.89z"/>
			<path class="st2" d="M749.18,435.89h6.68v2.28h-4.37v2.21h4.37v2.24h-4.37v3.22h4.37v2.29h-6.68V435.89z"/>
			<path class="st2" d="M778.21,438.04l-1.63,1.55c-1.11-1.17-2.36-1.76-3.74-1.76c-1.17,0-2.15,0.4-2.96,1.2     c-0.8,0.8-1.2,1.78-1.2,2.96c0,0.82,0.18,1.54,0.53,2.17c0.35,0.63,0.86,1.13,1.5,1.49c0.65,0.36,1.37,0.54,2.16,0.54     c0.68,0,1.29-0.13,1.85-0.38c0.56-0.25,1.17-0.71,1.85-1.38l1.58,1.65c-0.9,0.88-1.76,1.49-2.56,1.84     c-0.8,0.34-1.72,0.51-2.75,0.51c-1.9,0-3.46-0.6-4.67-1.81c-1.21-1.21-1.82-2.75-1.82-4.64c0-1.22,0.28-2.3,0.83-3.25     c0.55-0.95,1.34-1.71,2.37-2.29c1.03-0.58,2.14-0.87,3.32-0.87c1.01,0,1.98,0.21,2.92,0.64     C776.72,436.64,777.53,437.25,778.21,438.04z"/>
			<path class="st2" d="M782.24,435.89h2.34v7.91c0,0.68,0.06,1.16,0.18,1.45c0.12,0.28,0.32,0.51,0.59,0.68     c0.27,0.17,0.61,0.25,0.99,0.25c0.41,0,0.76-0.09,1.06-0.28c0.3-0.19,0.5-0.43,0.62-0.72c0.11-0.29,0.17-0.85,0.17-1.67v-7.62     h2.34v7.3c0,1.23-0.07,2.09-0.21,2.56c-0.14,0.48-0.4,0.94-0.79,1.38c-0.39,0.44-0.84,0.77-1.35,0.99     c-0.51,0.21-1.1,0.32-1.78,0.32c-0.89,0-1.66-0.2-2.32-0.61c-0.66-0.41-1.13-0.92-1.41-1.53s-0.42-1.65-0.42-3.11V435.89z"/>
			<path class="st2" d="M795.31,435.89h2.33v10.02h3.39v2.22h-5.72V435.89z"/>
			<path class="st2" d="M803.68,435.89h6.76v2.3h-2.23v9.94h-2.36v-9.94h-2.17V435.89z"/>
			<path class="st2" d="M814.04,435.89h2.34v7.91c0,0.68,0.06,1.16,0.18,1.45c0.12,0.28,0.32,0.51,0.59,0.68     c0.27,0.17,0.61,0.25,0.99,0.25c0.41,0,0.76-0.09,1.06-0.28c0.3-0.19,0.5-0.43,0.62-0.72c0.11-0.29,0.17-0.85,0.17-1.67v-7.62     h2.34v7.3c0,1.23-0.07,2.09-0.21,2.56c-0.14,0.48-0.4,0.94-0.79,1.38c-0.39,0.44-0.84,0.77-1.35,0.99     c-0.51,0.21-1.1,0.32-1.78,0.32c-0.89,0-1.66-0.2-2.32-0.61c-0.66-0.41-1.13-0.92-1.41-1.53s-0.42-1.65-0.42-3.11V435.89z"/>
			<path class="st2" d="M827.27,435.89h2.47c1.35,0,2.32,0.12,2.89,0.36c0.57,0.24,1.04,0.64,1.38,1.2     c0.35,0.56,0.52,1.22,0.52,1.99c0,0.8-0.19,1.48-0.58,2.02c-0.39,0.54-0.97,0.95-1.74,1.23l2.9,5.44h-2.55l-2.75-5.18h-0.21v5.18     h-2.33V435.89z M829.6,440.67h0.73c0.74,0,1.25-0.1,1.53-0.29c0.28-0.2,0.42-0.52,0.42-0.97c0-0.27-0.07-0.5-0.21-0.7     c-0.14-0.2-0.32-0.34-0.56-0.43c-0.23-0.09-0.66-0.13-1.28-0.13h-0.64V440.67z"/>
			<path class="st2" d="M839.08,435.89h6.68v2.28h-4.37v2.21h4.37v2.24h-4.37v3.22h4.37v2.29h-6.68V435.89z"/>
		</g>
		<g>
			<g>
				<g>
					<path class="st2" d="M835.16,383.08h-25.03v18.27h19.15v5.08h-19.15v14.37h24.03l4.01,5.08h-33.69V378h30.68V383.08z"/>
					<path class="st2" d="M868.89,425.87l-14.87-20.09h-10.23v20.09h-5.66V378h16.83c4.64,0,8.34,1.31,11.1,3.92       c2.76,2.61,4.13,5.95,4.13,10.01c0,3.29-0.9,6.07-2.68,8.34c-1.79,2.27-4.26,3.89-7.4,4.86l15.23,20.75H868.89z M843.72,400.7       h10.95c3.09,0,5.49-0.8,7.18-2.39c1.69-1.6,2.54-3.72,2.54-6.38c0-2.56-0.85-4.69-2.54-6.38c-1.64-1.64-4.01-2.47-7.11-2.47       h-10.95L843.72,400.7z"/>
					<path class="st2" d="M906.09,425.87l-14.87-20.09H881v20.09h-5.66V378h16.83c4.64,0,8.34,1.31,11.1,3.92       c2.76,2.61,4.13,5.95,4.13,10.01c0,3.29-0.9,6.07-2.68,8.34c-1.79,2.27-4.26,3.89-7.4,4.86l15.23,20.75H906.09z M880.92,400.7       h10.95c3.09,0,5.49-0.8,7.18-2.39c1.69-1.6,2.54-3.72,2.54-6.38c0-2.56-0.85-4.69-2.54-6.38c-1.64-1.64-4.01-2.47-7.11-2.47       H881L880.92,400.7z"/>
					<path class="st2" d="M945.65,416.15h-22.73l-4.45,9.72h-5.95l21.8-48.67l21.79,48.67h-6.02L945.65,416.15z M934.28,389.69       l-9.32,21.38h18.63L934.28,389.69z"/>
					<g>
						<path class="st2" d="M694.19,389h-25.57v6.03h11.59v11.24h-11.59v19.36h-12.48v-47.87h29.85L694.19,389z"/>
						<path class="st2" d="M733,389h-26.34v6.6h20.39v10.44h-20.39v8.34h27.21v11.24h-39.69v-47.87H733V389z"/>
						<g>
							<rect x="564.8" y="378" class="st2" width="13.5" height="47.64"/>
							<polygon class="st2" points="610.24,378 595.92,378 578.3,402.05 578.3,402.05 578.3,402.06 578.3,402.06 578.3,402.06          595.45,425.63 609.78,425.63 592.62,402.06        "/>
						</g>
						<path class="st2" d="M632.96,378.06l-23.19,47.58h13.1l1.7-3.89h16.78l1.7,3.89h13.1L632.96,378.06z M627.56,412.17l4.88-9.79        l5.13,9.79H627.56z"/>
						<path class="st2" d="M757.06,378.06l-23.19,47.58h13.1l1.7-3.89h16.78l1.7,3.89h13.1L757.06,378.06z M751.66,412.17l4.88-9.79        l5.13,9.79H751.66z"/>
					</g>
					<g>
						<polygon class="st2" points="577.87,425.24 577.86,425.23 577.86,425.24       "/>
					</g>
					<polygon class="st2" points="762.09,378 764.54,383.08 779.73,383.08 779.73,414.52 785.22,425.87 785.39,425.87        785.39,383.08 802.29,383.08 802.29,378      "/>
				</g>
			</g>
			<g>
				<path class="st2" d="M960.44,425.87c-2.29,0-4.16-1.87-4.16-4.16c0-2.29,1.87-4.16,4.16-4.16c2.29,0,4.16,1.87,4.16,4.16      C964.6,424.01,962.74,425.87,960.44,425.87z M960.44,418.34c-1.86,0-3.37,1.51-3.37,3.37c0,1.86,1.51,3.37,3.37,3.37      s3.37-1.51,3.37-3.37C963.82,419.85,962.3,418.34,960.44,418.34z"/>
				<g>
					<path class="st2" d="M961.6,419.49c0.17,0.07,0.32,0.18,0.44,0.33c0.1,0.12,0.18,0.25,0.24,0.39c0.06,0.14,0.09,0.31,0.09,0.49       c0,0.22-0.06,0.44-0.17,0.66c-0.11,0.22-0.3,0.37-0.56,0.46c0.22,0.09,0.37,0.21,0.46,0.37c0.09,0.16,0.14,0.4,0.14,0.73v0.32       c0,0.21,0.01,0.36,0.03,0.44c0.03,0.12,0.09,0.21,0.18,0.27v0.12h-1.08c-0.03-0.1-0.05-0.19-0.06-0.25       c-0.03-0.13-0.04-0.27-0.04-0.4l-0.01-0.44c0-0.3-0.06-0.5-0.16-0.6c-0.1-0.1-0.29-0.15-0.56-0.15h-0.96v1.84h-0.96v-4.69h2.24       C961.18,419.37,961.43,419.41,961.6,419.49z M959.58,420.18v1.26h1.06c0.21,0,0.37-0.03,0.47-0.08       c0.19-0.09,0.28-0.27,0.28-0.53c0-0.28-0.09-0.48-0.27-0.57c-0.1-0.06-0.25-0.08-0.45-0.08H959.58z"/>
				</g>
			</g>
		</g>
	</g>
	<g>
		<path class="st2" d="M494.33,423.08h-0.15l-0.43,2.79h-3.65v-39.52h4.56v10.81l-0.15,4.83c2.47-2.13,5.47-3.75,8.47-3.75    c6.97,0,10.71,5.41,10.71,13.72c0,9.21-5.52,14.58-11.68,14.58C499.51,426.53,496.71,425.24,494.33,423.08z M508.98,412.02    c0-5.95-2.03-9.94-7.11-9.94c-2.28,0-4.65,1.26-7.21,3.68v14.13c2.37,2.05,4.78,2.8,6.57,2.8    C505.69,422.69,508.98,418.67,508.98,412.02z"/>
		<path class="st2" d="M517.85,436.93l0.89-3.64c0.53,0.18,1.36,0.4,2.06,0.4c3.04,0,4.96-2.44,6.08-5.79l0.61-1.99l-10.82-27.02    h4.7l5.5,14.93c0.85,2.34,1.75,5.1,2.63,7.6h0.22c0.77-2.45,1.53-5.21,2.27-7.6l4.81-14.93h4.47l-10.16,29.18    c-1.9,5.35-4.69,9.4-10.09,9.4C519.76,437.49,518.72,437.26,517.85,436.93z"/>
	</g>
</g>
</svg>