<svg viewBox="0 0 90 30" xmlns="http://www.w3.org/2000/svg" xml:space="preserve" style="fill-rule:evenodd;clip-rule:evenodd;stroke-linejoin:round;stroke-miterlimit:2"><path style="fill:none" d="M0 0h90v30H0z"/><path d="M414.4 11.5c6-.5 12-.7 17.8.3 14.1 1 28 4.5 41.1 9.9a130.3 130.3 0 0 1 61.8 56.2c31.7 55 63.5 109.8 95.1 164.8A129 129 0 0 1 649 298c.1 8 .2 16.1 0 24.1-1.5 11-3.8 21.9-7.6 32.3a132 132 0 0 1-25.5 41.4c-6.4 6-12 13-19.4 17.7a124.5 124.5 0 0 1-64.3 24.5H315c-11-.6-22-3-32.3-6.6a121.4 121.4 0 0 1-39.9-22.2c-3-2.7-5.6-5.7-8.9-8-2.2-3.1-5-5.7-7.6-8.5A131.1 131.1 0 0 1 196 318v-17c.8-11.8 3.2-23.5 7.4-34.6 3.7-11.7 10.5-22 16.4-32.6L311 76a125.1 125.1 0 0 1 40.6-43.4 127 127 0 0 1 53.6-20.3c3-.4 6.2 0 9.3-.8m-5.1 75.8A165 165 0 0 0 279 169c-2.3 4.7-5.5 8.9-7.2 13.8a170 170 0 0 0-14.6 51.4c-.6 4 0 8.2-.8 12.2-1.3 7.2.4 14.4.5 21.6 2.5 29.1 13 57.5 29.8 81.4 4.2 5.3 7.9 11.3 13 15.9 2.8 3.2 5.2 6.9 8.9 9.2 31 29.2 73.7 46.2 116.4 44.7 14.4.5 28.6-2.2 42.4-5.8a171.5 171.5 0 0 0 63.3-33.6c2.9-2.5 5.2-5.6 8.3-7.7 2.7-1.7 3.9-4.8 6.2-6.8 4.7-4.4 8.5-9.6 12.4-14.7 16-22.5 26.4-48.8 29.9-76.2.9-3.8.2-7.8 1.2-11.6.6-5.9.3-11.9.2-17.8-1.3-4.6-.4-9.6-1.6-14.3a166.4 166.4 0 0 0-178-143.4Z" style="fill:#00d1d2;fill-rule:nonzero" transform="translate(-9 4.2) scale(.05075)"/><path d="M23.4 569.6c4.2-.5 8.4-.2 12.6-.2 4 0 7.6 3.7 7.9 7.6v158c.3 4.3-3.5 8.7-8 8.6H24.3c-4.2-.5-7-4.6-6.9-8.7V578.1a8.3 8.3 0 0 1 6.1-8.5ZM90 580a10.3 10.3 0 0 1 11-10.6h137c17.1.3 34.8 3 49.6 12A56.5 56.5 0 0 1 316 624c.2 18.4 0 36.8.1 55.1.5 6-5.2 11.3-11 11-3.7 0-7.9.3-10.7-2.4-2.7-2.4-4.6-5.9-4.3-9.6v-47a32 32 0 0 0-5.9-18.2 47.9 47.9 0 0 0-30.2-15.5c-10.9-2-22-1.3-33-1.4-34.3 0-68.6-.2-102.9 0-1 1.6-2.1 3.2-2 5.1v75c-.2 7.8.8 16 5.2 22.7 4.3 7.2 12.2 11.1 19.7 14.3 9.6 3.3 19.9 4.3 30 4.2h125c6.3-.1 11.2 4.3 15.2 8.7l27 26.9c4 3.8 5.5 10.7 1.8 15.2-3.6 5.7-11.5 10.2-17.8 5.7-9-8.6-17.6-17.6-26.5-26.4-2.4-2.2-5.4-4-8.7-3.7H165c-21-.6-43.6-6.2-58.8-21.9A55.3 55.3 0 0 1 90 681V580ZM434.4 569.4c23.2-.2 46.4 0 69.6 0 16.4 0 33.2 2.1 48 9.7a57.3 57.3 0 0 1 33 48.9v56c0 14.6-6.6 28.8-17.2 38.8a69.5 69.5 0 0 1-22.7 14.3c-13.4 5-27.8 6.8-42.1 6.5h-49c-11.5 0-23.1.6-34.6-1.3a75 75 0 0 1-43.8-20A53.4 53.4 0 0 1 359 682v-41c0-8.5-.7-17.1 1.8-25.4a58 58 0 0 1 26.1-33.7 95 95 0 0 1 47.6-12.5m-6 26.9c-12 1-24.4 4.3-33.7 12.4A31 31 0 0 0 385 633v39c.1 6.5-.7 13.2 1.6 19.4 2.4 9.3 10.2 15.8 18.5 19.7 10.9 4.9 23 6.3 34.9 6h70c13.7-.5 28-3.5 38.8-12.4 6.8-5.8 9.9-14.9 10-23.6V631a34.3 34.3 0 0 0-6.6-19.1c-4-5-9.8-8.2-15.6-10.7a94.2 94.2 0 0 0-38.6-5.4h-59c-3.6 0-7.1 0-10.7.5ZM742.4 569.5c14.2 0 28.8-1.5 42.6 2.7a62.8 62.8 0 0 1 25.2 14.6c3.2 3.1 7.3 5.5 9.3 9.6 3.4 9.3-6.3 20.6-16 18.3-5.4-1.9-8.5-7-13-10.2a39 39 0 0 0-24.5-8.7c-26.3 0-52.7.3-79 .2-9.7.4-19.8 1.1-28.8 5.2-3.7 1.5-7 4.4-9.3 7.8-3 7.7-3 17.2 1.9 24.2 8 7.5 19.7 9.1 30.2 10 23.7.3 47.3 0 71 .1 17.3-.2 35.4.6 51 8.8a40.8 40.8 0 0 1 24.1 38c-.3 5.9.6 12-1.1 18a42.8 42.8 0 0 1-22.3 26.5 90.5 90.5 0 0 1-39.8 9H677a63.7 63.7 0 0 1-38.4-11.3 94 94 0 0 1-13.9-12c-3.6-3.6-4.7-10-1.4-14 2.1-2.5 4-5.6 7-6.9 3.8-2 8.9-1.7 11.9 1.4l9 8a37.3 37.3 0 0 0 23.8 8.4l91-.1a56.1 56.1 0 0 0 30.2-8.8c4-4 5.1-10 5-15.3.1-4-.8-8-2.8-11.4-1.3-3-4.5-4.3-7.1-6a77.3 77.3 0 0 0-35.3-5.8h-73c-15.7-.6-32-3.5-45-12.9a41.7 41.7 0 0 1-16.9-27.9 141 141 0 0 1 0-17 40.6 40.6 0 0 1 16.7-29.2c13-9.7 29.5-12.5 45.2-13 19.8-.4 39.6 0 59.4-.3Z" style="fill:#2a2a2a;fill-rule:nonzero" transform="matrix(.07367 0 0 .07367 28 -33)"/></svg>