<svg width="241" height="76" viewBox="0 0 241 76" fill="none" xmlns="http://www.w3.org/2000/svg">
<path d="M96.6504 0H0V76H96.6504V0Z" fill="#023F88"/>
<path d="M102.537 29.063C102.537 29.063 77.8118 7.01846 51.0962 7.01846C29.9573 7.01846 14.7168 22.2471 14.7168 22.2471L18.4703 27.7999C18.4703 27.7999 29.5998 11.1414 55.9341 11.1414C78.1574 11.1414 102.526 31.3985 102.526 31.3985V29.063H102.537Z" fill="#FFB71B"/>
<path d="M59.3539 20.6383C59.3539 24.0939 56.5417 26.9061 53.0623 26.9061C49.5828 26.9061 46.7945 24.0939 46.7945 20.6383C46.7945 17.1827 49.6066 14.3586 53.0623 14.3586C56.5179 14.3586 59.3539 17.1707 59.3539 20.6383Z" fill="#FFB71B"/>
<path d="M39.813 21.6036L48.7738 63.1188L44.2934 58.6384L33.5333 24.7971L39.813 21.6036Z" fill="#FFB71B"/>
<path d="M66.7195 71.1859L58.4856 29.063L51.0977 30.7908L62.5609 65.6212L66.7195 71.1859Z" fill="#FFB71B"/>
<path d="M76.3696 26.9181L83.7218 62.2132L79.7657 57.7447L68.8506 23.8676L76.3696 26.9181Z" fill="#FFB71B"/>
<path fill-rule="evenodd" clip-rule="evenodd" d="M131.245 0C132.346 0 133.328 0.201215 134.192 0.591808C135.056 0.982401 135.79 1.52686 136.394 2.20153C136.997 2.88802 137.459 3.68104 137.778 4.60427C138.098 5.51565 138.264 6.49805 138.264 7.55147C138.264 8.60489 138.098 9.59912 137.778 10.5342C137.459 11.4574 136.997 12.2623 136.394 12.9369C135.79 13.6234 135.056 14.156 134.192 14.5466C133.328 14.9372 132.346 15.1384 131.245 15.1384C130.144 15.1384 129.162 14.9372 128.286 14.5466C127.41 14.156 126.676 13.6116 126.084 12.9369C125.492 12.2504 125.031 11.4574 124.711 10.5342C124.392 9.61096 124.226 8.61672 124.226 7.55147C124.226 6.48621 124.392 5.51565 124.711 4.60427C125.031 3.69288 125.492 2.88802 126.084 2.20153C126.676 1.51503 127.41 0.982401 128.286 0.591808C129.162 0.201215 130.144 0 131.245 0ZM131.245 12.5345C131.943 12.5345 132.535 12.3925 133.032 12.0966C133.529 11.8125 133.943 11.4337 134.275 10.9603C134.606 10.4868 134.855 9.95421 135.009 9.3624C135.163 8.77059 135.245 8.15511 135.245 7.53963C135.245 6.92415 135.163 6.32051 135.009 5.71686C134.855 5.12506 134.606 4.59243 134.275 4.13082C133.943 3.66921 133.529 3.29045 133.032 3.00638C132.535 2.72232 131.943 2.58028 131.245 2.58028C130.546 2.58028 129.966 2.72232 129.458 3.00638C128.949 3.29045 128.522 3.65737 128.203 4.13082C127.871 4.59243 127.635 5.12506 127.469 5.71686C127.303 6.30867 127.221 6.92415 127.221 7.53963C127.221 8.15511 127.303 8.75876 127.469 9.3624C127.635 9.96604 127.883 10.4868 128.203 10.9603C128.534 11.4337 128.949 11.8125 129.458 12.0966C129.966 12.3806 130.558 12.5345 131.245 12.5345Z" fill="#231F20"/>
<path d="M121.408 0.390541V14.7123H118.426V2.88797H112.898V14.7123H109.951V0.390541H121.408Z" fill="#231F20"/>
<path d="M152.964 14.7123L148.052 0.390541H145.176L140.311 14.7123H143.495L146.643 4.00057L149.745 14.7123H152.964Z" fill="#231F20"/>
<path d="M159.071 0.390541V14.7123H156.123V0.390541H159.071Z" fill="#231F20"/>
<path d="M160.976 0.390541V2.97082H165.19V14.7123H168.161V2.97082H172.41V0.390541H160.976Z" fill="#231F20"/>
<path d="M177.641 0.390541V14.7123H174.694V0.390541H177.641Z" fill="#231F20"/>
<path d="M180.447 2.50921L185.394 7.26735L180.186 12.7238V14.7123H191.111V12.2385H184.412L188.945 7.30286L184.649 2.88797H190.661V0.390541H180.447V2.50921Z" fill="#231F20"/>
<path d="M192.118 2.97082V0.390541H203.551V2.97082H199.302V14.7123H196.331V2.97082H192.118Z" fill="#231F20"/>
<path d="M208.783 14.7123V0.390541H205.835V14.7123H208.783Z" fill="#231F20"/>
<path d="M215.304 0.390541V6.28495L220.902 0.390541H224.571L218.878 6.19026L225.092 14.7123H221.518L216.842 8.1669L215.316 9.68192V14.7123H212.368V0.390541H215.304Z" fill="#231F20"/>
<path fill-rule="evenodd" clip-rule="evenodd" d="M236.184 0.591808C235.32 0.201215 234.338 0 233.237 0C232.136 0 231.154 0.201215 230.278 0.591808C229.402 0.982401 228.668 1.51503 228.076 2.20153C227.484 2.88802 227.023 3.69288 226.703 4.60427C226.384 5.51565 226.218 6.48621 226.218 7.55147C226.218 8.61672 226.384 9.61096 226.703 10.5342C227.023 11.4574 227.484 12.2504 228.076 12.9369C228.668 13.6116 229.402 14.156 230.278 14.5466C231.154 14.9372 232.136 15.1384 233.237 15.1384C234.338 15.1384 235.32 14.9372 236.184 14.5466C237.048 14.156 237.782 13.6234 238.386 12.9369C238.989 12.2623 239.451 11.4574 239.77 10.5342C240.09 9.59912 240.256 8.60489 240.256 7.55147C240.256 6.49805 240.09 5.51565 239.77 4.60427C239.451 3.68104 238.989 2.88802 238.386 2.20153C237.782 1.52686 237.048 0.982401 236.184 0.591808ZM235.024 12.0966C234.527 12.3925 233.935 12.5345 233.237 12.5345C232.55 12.5345 231.959 12.3806 231.45 12.0966C230.941 11.8125 230.526 11.4337 230.195 10.9603C229.875 10.4868 229.627 9.96604 229.461 9.3624C229.295 8.75876 229.213 8.15511 229.213 7.53963C229.213 6.92415 229.295 6.30867 229.461 5.71686C229.627 5.12506 229.864 4.59243 230.195 4.13082C230.515 3.65737 230.941 3.29045 231.45 3.00638C231.959 2.72232 232.539 2.58028 233.237 2.58028C233.935 2.58028 234.527 2.72232 235.024 3.00638C235.521 3.29045 235.936 3.66921 236.267 4.13082C236.598 4.59243 236.847 5.12506 237.001 5.71686C237.155 6.32051 237.237 6.92415 237.237 7.53963C237.237 8.15511 237.155 8.77059 237.001 9.3624C236.847 9.95421 236.598 10.4868 236.267 10.9603C235.936 11.4337 235.521 11.8125 235.024 12.0966Z" fill="#231F20"/>
<path d="M112.993 20.8079V35.1297H110.046V20.8079H112.993Z" fill="#231F20"/>
<path fill-rule="evenodd" clip-rule="evenodd" d="M129.386 35.1297L123.905 20.8079H120.958L115.49 35.1297H129.386ZM119.266 32.6559L122.426 24.3114L125.61 32.6559H119.266Z" fill="#231F20"/>
<path fill-rule="evenodd" clip-rule="evenodd" d="M130.972 35.1297V20.8079H137.34C137.92 20.8079 138.464 20.8908 138.973 21.0446C139.482 21.1985 139.932 21.4352 140.334 21.7311C140.725 22.027 141.056 22.394 141.329 22.8319C141.601 23.2698 141.778 23.7433 141.873 24.2877C141.885 24.3824 141.897 24.4534 141.909 24.5245L141.913 24.5509C141.923 24.6107 141.932 24.6637 141.932 24.7257C141.932 24.7967 141.944 24.8796 141.956 24.9624V25.7199C141.956 25.8264 141.956 25.9211 141.932 26.004L141.897 26.2525C141.897 26.3198 141.881 26.387 141.863 26.4669L141.862 26.4682L141.849 26.5248C141.743 27.0456 141.565 27.5308 141.305 27.957C141.044 28.3831 140.737 28.7618 140.358 29.0695C139.979 29.3773 139.565 29.614 139.092 29.7797C138.618 29.9454 138.109 30.0283 137.565 30.0283H133.907V35.1415H130.96L130.972 35.1297ZM138.393 26.9746C138.807 26.6786 139.009 26.1815 139.009 25.4832C139.009 24.8322 138.819 24.2996 138.452 23.8971C138.085 23.4947 137.576 23.2935 136.949 23.2935H133.943V27.4243H136.795C137.446 27.4243 137.979 27.2705 138.393 26.9746Z" fill="#231F20"/>
<path d="M143.032 20.8198L148.204 29.8152H148.193V35.1415H151.163V29.8152L155.874 20.8198H152.489L149.684 26.9864L146.583 20.8198H143.032Z" fill="#231F20"/>
<path d="M162.905 20.8079L165.734 31.709L168.539 20.8079H172.942V35.1297H170.172V23.5539L167.26 35.1297H164.219L161.271 23.5539V35.1297H158.525V20.8079H162.905Z" fill="#231F20"/>
<path fill-rule="evenodd" clip-rule="evenodd" d="M186.484 35.1297H189.585L184.401 20.8079H181.028L175.914 35.1297H179.004L179.962 32.1825H185.525L186.484 35.1297ZM182.708 23.6723L184.732 29.8034H180.72L182.708 23.6723Z" fill="#231F20"/>
<path fill-rule="evenodd" clip-rule="evenodd" d="M116.329 40.8347C117.43 40.8347 118.413 41.036 119.277 41.4265C120.141 41.8171 120.874 42.3616 121.478 43.0363C122.082 43.7228 122.543 44.5158 122.863 45.439C123.183 46.3504 123.348 47.3328 123.348 48.3862C123.348 49.4396 123.194 50.4339 122.863 51.3689C122.532 52.304 122.082 53.097 121.478 53.7717C120.874 54.4582 120.141 54.9908 119.277 55.3814C118.413 55.772 117.43 55.9732 116.329 55.9732C115.229 55.9732 114.246 55.772 113.37 55.3814C112.494 54.9908 111.761 54.4463 111.169 53.7717C110.577 53.0852 110.115 52.2921 109.796 51.3689C109.476 50.4457 109.311 49.4515 109.311 48.3862C109.311 47.321 109.476 46.3504 109.796 45.439C110.115 44.5276 110.577 43.7228 111.169 43.0363C111.761 42.3498 112.494 41.8171 113.37 41.4265C114.246 41.036 115.229 40.8347 116.329 40.8347ZM116.329 53.3692C117.028 53.3692 117.62 53.2272 118.117 52.9313C118.614 52.6472 119.028 52.2685 119.359 51.795C119.691 51.3216 119.939 50.7889 120.093 50.1971C120.247 49.6053 120.33 48.9899 120.33 48.3744C120.33 47.7589 120.247 47.1552 120.093 46.5516C119.939 45.9598 119.691 45.4272 119.359 44.9656C119.028 44.504 118.614 44.1252 118.117 43.8411C117.62 43.5571 117.028 43.415 116.329 43.415C115.631 43.415 115.051 43.5571 114.542 43.8411C114.033 44.1252 113.607 44.4921 113.287 44.9656C112.956 45.4272 112.708 45.9598 112.554 46.5516C112.388 47.1434 112.305 47.7589 112.305 48.3744C112.305 48.9899 112.388 49.5935 112.554 50.1971C112.719 50.7889 112.968 51.3216 113.287 51.795C113.619 52.2685 114.033 52.6472 114.542 52.9313C115.051 53.2154 115.643 53.3692 116.329 53.3692Z" fill="#231F20"/>
<path d="M133.788 52.1264L130.959 41.2253H126.579V55.547H129.325V43.9713L132.273 55.547H135.314L138.226 43.9713V55.547H140.996V41.2253H136.593L133.788 52.1264Z" fill="#231F20"/>
<path d="M148.289 41.2253V55.547H145.341V41.2253H148.289Z" fill="#231F20"/>
<path d="M163.332 55.547L158.42 41.2253H155.556L150.679 55.547H153.863L157.012 44.8353L160.113 55.547H163.332Z" fill="#231F20"/>
<path fill-rule="evenodd" clip-rule="evenodd" d="M172.387 40.8347C173.488 40.8347 174.47 41.036 175.334 41.4265C176.198 41.8171 176.932 42.3616 177.536 43.0363C178.139 43.7228 178.601 44.5158 178.921 45.439C179.24 46.3504 179.406 47.3328 179.406 48.3862C179.406 49.4396 179.24 50.4339 178.921 51.3689C178.601 52.2921 178.139 53.097 177.536 53.7717C176.932 54.4582 176.198 54.9908 175.334 55.3814C174.47 55.772 173.488 55.9732 172.387 55.9732C171.286 55.9732 170.304 55.772 169.428 55.3814C168.552 54.9908 167.818 54.4463 167.226 53.7717C166.635 53.0852 166.173 52.2921 165.853 51.3689C165.534 50.4457 165.368 49.4515 165.368 48.3862C165.368 47.321 165.534 46.3504 165.853 45.439C166.173 44.5276 166.635 43.7228 167.226 43.0363C167.818 42.3498 168.552 41.8171 169.428 41.4265C170.304 41.036 171.286 40.8347 172.387 40.8347ZM172.387 53.3692C173.085 53.3692 173.677 53.2272 174.174 52.9313C174.671 52.6472 175.086 52.2685 175.417 51.795C175.748 51.3216 175.997 50.7889 176.151 50.1971C176.305 49.6053 176.388 48.9899 176.388 48.3744C176.388 47.7589 176.305 47.1552 176.151 46.5516C175.997 45.9598 175.748 45.4272 175.417 44.9656C175.086 44.504 174.671 44.1252 174.174 43.8411C173.677 43.5571 173.085 43.415 172.387 43.415C171.689 43.415 171.109 43.5571 170.6 43.8411C170.091 44.1252 169.665 44.4921 169.345 44.9656C169.014 45.4272 168.777 45.9598 168.611 46.5516C168.446 47.1434 168.363 47.7589 168.363 48.3744C168.363 48.9899 168.446 49.5935 168.611 50.1971C168.777 50.8008 169.026 51.3216 169.345 51.795C169.677 52.2685 170.091 52.6472 170.6 52.9313C171.109 53.2154 171.701 53.3692 172.387 53.3692Z" fill="#231F20"/>
<path d="M181.31 41.2371L186.482 50.2326H186.471V55.5589H189.441V50.2326L194.152 41.2371H190.767L187.962 47.4038L184.861 41.2371H181.31Z" fill="#231F20"/>
<path d="M121.408 61.6427V75.9644H118.426V64.1401H112.898V75.9644H109.951V61.6427H121.408Z" fill="#231F20"/>
<path d="M135.256 64.1401V61.6308H124.864V75.9526H135.635V73.3249H127.776V69.6557H134.629V67.182H127.776V64.1401H135.256Z" fill="#231F20"/>
<path d="M141.009 61.6427V75.9644H138.062V61.6427H141.009Z" fill="#231F20"/>
<path fill-rule="evenodd" clip-rule="evenodd" d="M144.584 61.6427V75.9644L144.572 75.9762H147.519V70.863H151.176C151.721 70.863 152.23 70.7802 152.703 70.6145C153.177 70.4488 153.591 70.212 153.97 69.9043C154.348 69.5966 154.656 69.2178 154.916 68.7917C155.177 68.3656 155.354 67.8803 155.461 67.3595C155.465 67.3395 155.47 67.3202 155.474 67.3017C155.493 67.2218 155.508 67.1545 155.508 67.0873L155.544 66.8387C155.567 66.7559 155.567 66.6612 155.567 66.5547V65.7971C155.556 65.7143 155.544 65.6314 155.544 65.5604C155.544 65.4983 155.535 65.4452 155.525 65.3854L155.52 65.3592C155.508 65.2885 155.496 65.2167 155.485 65.1225C155.39 64.578 155.212 64.1046 154.94 63.6666C154.668 63.2287 154.336 62.8618 153.946 62.5659C153.543 62.27 153.094 62.0332 152.585 61.8794C152.076 61.7255 151.531 61.6427 150.951 61.6427H144.584ZM152.62 66.3179C152.62 67.0163 152.419 67.5134 152.005 67.8093C151.591 68.1052 151.058 68.2591 150.407 68.2591H147.554V64.1282H150.561C151.188 64.1282 151.697 64.3295 152.064 64.7319C152.431 65.1343 152.62 65.6669 152.62 66.3179Z" fill="#231F20"/>
<path fill-rule="evenodd" clip-rule="evenodd" d="M170.564 75.9644H167.463L166.504 73.0172H160.941L159.983 75.9644H156.893L162.007 61.6427H165.38L170.564 75.9644ZM165.711 70.6381L163.687 64.507L161.699 70.6381H165.711Z" fill="#231F20"/>
<path d="M175.593 75.9644V61.6427H172.646V75.9644H175.593Z" fill="#231F20"/>
<path d="M181.075 73.4789C180.341 72.7806 179.749 71.9875 179.311 71.0762C178.861 70.1648 178.648 69.1942 178.648 68.1763C178.648 67.1584 178.814 66.247 179.133 65.4066C179.453 64.5663 179.915 63.8443 180.495 63.2288C181.086 62.6133 181.797 62.1399 182.613 61.7966C183.442 61.4534 184.353 61.2877 185.359 61.2877C186.365 61.2877 187.241 61.4534 188.07 61.7848C188.898 62.1162 189.597 62.5778 190.188 63.1696C190.78 63.7614 191.23 64.4716 191.561 65.3001C191.893 66.1286 192.059 67.04 192.059 68.0343C192.059 69.1114 191.834 70.1056 191.396 71.017C190.958 71.9284 190.366 72.7569 189.62 73.5026H192.485V76H186.555V73.1712C187.383 72.5083 188.011 71.7745 188.437 70.9815C188.863 70.1884 189.076 69.2652 189.076 68.2C189.076 67.6318 188.993 67.0992 188.839 66.5784C188.685 66.0576 188.448 65.6079 188.129 65.2173C187.809 64.8267 187.431 64.5071 186.957 64.2704C186.496 64.0336 185.963 63.9153 185.359 63.9153C184.756 63.9153 184.223 64.0336 183.761 64.2704C183.3 64.5071 182.909 64.8148 182.59 65.2173C182.27 65.6197 182.033 66.0695 181.868 66.5784C181.702 67.0992 181.619 67.6318 181.619 68.2C181.619 69.2179 181.832 70.1529 182.258 70.9933C182.684 71.8337 183.312 72.5557 184.128 73.1712V76H178.198V73.5026H181.063L181.075 73.4789Z" fill="#231F20"/>
<path d="M194.248 63.7613L199.196 68.5195L193.988 73.9759V75.9644H204.912V73.4906H198.213L202.746 68.555L198.45 64.1401H204.463V61.6427H194.248V63.7613Z" fill="#231F20"/>
</svg>
