<svg role="presentation" class="logo" viewBox="0 0 288 88" fill="none" xmlns="http://www.w3.org/2000/svg">
                        <path d="M55.9907 22.543H32.1528V65.4478H55.9907V22.543Z" fill="#FF5F00"></path>
                        <path d="M33.6704 43.9993C33.6704 35.2986 37.737 27.5453 44.072 22.5507C39.4364 18.8976 33.5946 16.7148 27.2368 16.7148C12.1921 16.7148 0 28.9246 0 43.9993C0 59.074 12.1921 71.2838 27.2368 71.2838C33.5946 71.2838 39.4364 69.101 44.072 65.4479C37.737 60.4534 33.6704 52.7 33.6704 43.9993Z" fill="#EB001B"></path>
                        <path d="M85.5419 60.9009V60.0217H85.8984V59.8398H84.9956V60.0217H85.3522V60.9009H85.5419ZM87.2868 60.9009V59.8398H87.0137L86.6951 60.5674L86.3764 59.8398H86.1033V60.9009H86.3005V60.1051L86.5964 60.7948H86.8013L87.0972 60.1051V60.9085H87.2944L87.2868 60.9009Z" fill="#F79E1B"></path>
                        <path d="M88.1438 43.9993C88.1438 59.0664 75.9517 71.2838 60.907 71.2838C54.5492 71.2838 48.7073 69.101 44.0718 65.4479C50.4068 60.4534 54.4733 52.7 54.4733 43.9993C54.4733 35.2986 50.4068 27.5453 44.0718 22.5507C48.7073 18.8976 54.5492 16.7148 60.907 16.7148C75.9517 16.7148 88.1438 28.9322 88.1438 43.9993Z" fill="#F79E1B"></path>
                        <path d="M104.622 88H104.144V74.3881V24.4954V0H104.622V5.07794V50.8552V88Z" fill="#000"></path>
                        <path d="M139.099 48.2305H134.665V47.2344H148.22V48.2305H144.431C144.431 51.5768 143.356 53.9792 141.208 55.4375C139.06 56.8828 136.813 57.6055 134.47 57.6055C131.045 57.6055 128.194 56.2383 125.915 53.5039C123.636 50.7695 122.497 47.5729 122.497 43.9141C122.497 40.2031 123.662 36.9935 125.993 34.2852C128.324 31.5638 131.228 30.2031 134.704 30.2031C136.501 30.2031 138.22 30.724 139.86 31.7656C140.355 32.0781 140.7 32.2344 140.896 32.2344C141.312 32.2344 141.729 31.8633 142.146 31.1211H143.024L143.298 38.2305H142.302C141.221 33.543 138.662 31.1992 134.626 31.1992C132.53 31.1992 131 31.6745 130.036 32.625C129.073 33.5625 128.48 34.7539 128.259 36.1992C128.05 37.6315 127.946 39.6823 127.946 42.3516C127.946 47.1562 128.103 50.3398 128.415 51.9023C128.741 53.4648 129.398 54.6432 130.388 55.4375C131.377 56.2188 132.588 56.6094 134.021 56.6094C135.166 56.6094 136.182 56.375 137.067 55.9062C137.966 55.4375 138.526 54.7409 138.747 53.8164C138.981 52.8789 139.099 51.4857 139.099 49.6367V48.2305ZM155.7 56.0039V31.8047H151.579V30.8086H165.935C167.81 30.8086 169.346 30.9714 170.544 31.2969C171.755 31.6224 172.797 32.2995 173.669 33.3281C174.541 34.3438 174.978 35.5156 174.978 36.8438C174.978 38.4974 174.34 39.8385 173.063 40.8672C171.787 41.8958 169.626 42.6706 166.579 43.1914V43.2891C168.767 43.7188 170.557 44.5521 171.95 45.7891C173.356 47.026 174.06 49.1224 174.06 52.0781C174.06 53.7708 174.255 54.8581 174.646 55.3398C175.049 55.8086 175.603 56.043 176.306 56.043C176.761 56.043 177.308 55.9518 177.946 55.7695V56.7266C176.813 57.1172 175.72 57.3125 174.665 57.3125C172.517 57.3125 171 56.7135 170.114 55.5156C169.229 54.3177 168.799 53.1458 168.825 52L168.903 48.6797C168.903 47.5208 168.532 46.3815 167.79 45.2617C167.061 44.1289 165.394 43.5625 162.79 43.5625H160.349V56.0039H164.47V57H151.579V56.0039H155.7ZM160.349 31.8047V42.6445H163.864C165.375 42.6445 166.527 42.5469 167.321 42.3516C168.116 42.1432 168.747 41.6159 169.216 40.7695C169.698 39.9102 169.938 38.5495 169.938 36.6875C169.938 35.1641 169.698 34.0508 169.216 33.3477C168.734 32.6445 168.148 32.2148 167.458 32.0586C166.781 31.8893 165.889 31.8047 164.782 31.8047H160.349ZM190.29 31.8047V43.0352H192.653C193.487 43.0352 194.19 42.957 194.763 42.8008C195.349 42.6315 195.869 42.1888 196.325 41.4727C196.794 40.7565 197.061 39.6367 197.126 38.1133H198.142V49.207H197.126C197.022 47.0977 196.612 45.7109 195.896 45.0469C195.192 44.3698 194.112 44.0312 192.653 44.0312H190.29V56.0039H195.622C198.643 56.0039 200.733 55.3724 201.892 54.1094C203.063 52.8333 203.76 50.8737 203.981 48.2305H204.978L204.724 57H181.501V56.0039H185.661V31.8047H181.501V30.8086H203.767L204.216 37.8008H203.22C202.881 35.6784 202.185 34.1484 201.13 33.2109C200.075 32.2734 198.317 31.8047 195.856 31.8047H190.29ZM218.22 31.8047V43.0352H220.583C221.416 43.0352 222.119 42.957 222.692 42.8008C223.278 42.6315 223.799 42.1888 224.255 41.4727C224.724 40.7565 224.991 39.6367 225.056 38.1133H226.071V49.207H225.056C224.951 47.0977 224.541 45.7109 223.825 45.0469C223.122 44.3698 222.041 44.0312 220.583 44.0312H218.22V56.0039H223.552C226.573 56.0039 228.662 55.3724 229.821 54.1094C230.993 52.8333 231.69 50.8737 231.911 48.2305H232.907L232.653 57H209.431V56.0039H213.591V31.8047H209.431V30.8086H231.696L232.146 37.8008H231.149C230.811 35.6784 230.114 34.1484 229.06 33.2109C228.005 32.2734 226.247 31.8047 223.786 31.8047H218.22ZM256.384 30.5156V38.2891H255.544C254.632 33.5625 252.276 31.1992 248.474 31.1992C246.429 31.1992 244.938 32 244.001 33.6016C243.063 35.2031 242.595 38.5755 242.595 43.7188C242.595 47.9505 242.797 50.8281 243.2 52.3516C243.604 53.875 244.3 54.9688 245.29 55.6328C246.293 56.2839 247.393 56.6094 248.591 56.6094C250.153 56.6094 251.618 56.0234 252.985 54.8516C254.366 53.6667 255.433 51.7721 256.188 49.168H257.106L256.794 57.1562H255.993C255.694 56.3229 255.225 55.6198 254.587 55.0469C252.53 56.7526 250.414 57.6055 248.239 57.6055C245.479 57.6055 242.959 56.2969 240.681 53.6797C238.402 51.0625 237.263 47.8594 237.263 44.0703C237.263 40.2031 238.382 36.9284 240.622 34.2461C242.862 31.5508 245.453 30.2031 248.396 30.2031C250.661 30.2031 252.66 31.0169 254.392 32.6445C254.899 31.8372 255.284 31.1276 255.544 30.5156H256.384ZM269.938 31.8047V43.0352H272.302C273.135 43.0352 273.838 42.957 274.411 42.8008C274.997 42.6315 275.518 42.1888 275.974 41.4727C276.442 40.7565 276.709 39.6367 276.774 38.1133H277.79V49.207H276.774C276.67 47.0977 276.26 45.7109 275.544 45.0469C274.841 44.3698 273.76 44.0312 272.302 44.0312H269.938V56.0039H275.271C278.291 56.0039 280.381 55.3724 281.54 54.1094C282.712 52.8333 283.409 50.8737 283.63 48.2305H284.626L284.372 57H261.149V56.0039H265.31V31.8047H261.149V30.8086H283.415L283.864 37.8008H282.868C282.53 35.6784 281.833 34.1484 280.778 33.2109C279.724 32.2734 277.966 31.8047 275.505 31.8047H269.938Z" fill="#11ACE4"></path>
                    </svg>