<?xml version="1.0" encoding="UTF-8"?>
<svg id="Layer_1" data-name="Layer 1" xmlns="http://www.w3.org/2000/svg" viewBox="0 0 1508.5 314.72">
  <defs>
    <style>
      .cls-1 {
        fill: #fff;
      }

      .cls-2 {
        fill: #ed1c24;
      }
    </style>
  </defs>
  <g>
    <path class="cls-2" d="m57.98,140.87l98.79-108.46,98.8,108.46h57.69C305.01,61.73,238.11,0,156.77,0S8.52,61.73.27,140.87h57.71Z"/>
    <path class="cls-2" d="m256.14,171.05l-99.34,109.08-99.38-109.08H0c6.93,80.49,74.46,143.67,156.77,143.67s149.79-63.18,156.73-143.67h-57.36Z"/>
    <path class="cls-1" d="m59.57,140.08h20.23c3.38,0,5.95.74,7.78,2.14,1.81,1.42,2.71,3.17,2.71,5.26,0,1.73-.65,3.25-1.94,4.51-.85.82-1.29,1.49-2.94,1.98,2.51.52,3.51,1.41,4.71,2.66,1.17,1.25,1.79,2.81,1.79,4.68,0,1.55-.41,2.93-1.28,4.14-.85,1.23-1.98,2.19-3.45,2.93-.91.44-2.27.74-4.11.98-2.42.27-4.04.41-4.83.41h-18.68v-29.69h0Zm11.13,12.06h4.52c1.62,0,2.74-.26,3.36-.71.64-.46.95-1.17.95-2.06,0-.81-.31-1.48-.95-1.94-.62-.47-1.73-.7-3.32-.7h-4.56v5.41Zm0,10.89h5.28c1.79,0,3.05-.27,3.79-.79.72-.53,1.1-1.25,1.1-2.16,0-.84-.36-1.51-1.1-2.03-.71-.5-2-.77-3.81-.77h-5.26v5.75Z"/>
    <rect class="cls-1" x="97.02" y="140.08" width="11.62" height="29.7"/>
    <path class="cls-1" d="m135.66,165.73h-11.39l-1.66,4.05h-10.86l12.79-29.7h11.49l12.81,29.7h-11.48l-1.7-4.05Zm-2.23-7.28l-3.48-8.89-3.4,8.89h6.88Z"/>
    <polygon class="cls-1" points="151.42 140.08 162.07 140.08 173.93 156.51 173.93 140.08 184.86 140.08 184.86 169.78 173.93 169.78 162.15 153.48 162.15 169.78 151.42 169.78 151.42 140.08"/>
    <polygon class="cls-1" points="191.28 140.08 220.07 140.08 220.07 147.34 202.79 147.34 202.79 151.15 216.92 151.15 216.92 157.76 202.79 157.76 202.79 162.39 220.56 162.39 220.56 169.78 191.28 169.78 191.28 140.08"/>
    <path class="cls-1" d="m254.34,169.78h-30.35v-7.48h30.35v7.48Zm-.55-22.23h-29.48v-7.47h29.48v7.47Zm-2.66,11.26h-24.27v-7.62h24.27v7.62Z"/>
  </g>
  <path class="cls-1" d="m421.94,193.15c2.29,0,4.53.17,6.69.47,2.12.36,3.99.9,5.62,1.71,1.62.79,2.93,1.84,3.89,3.13.99,1.31,1.48,2.93,1.48,4.86,0,1.08-.22,2.12-.69,3.16-.47,1.04-1.12,1.96-1.97,2.81-.86.82-1.86,1.52-3.01,2.12-1.17.57-2.45.98-3.91,1.21v.12c3.56.35,6.4,1.44,8.5,3.27,2.11,1.86,3.17,4.14,3.17,6.83,0,.67-.08,1.43-.23,2.25-.16.83-.47,1.66-.93,2.54-.46.86-1.15,1.72-2.02,2.57-.86.85-2.05,1.61-3.51,2.25-1.46.65-3.27,1.15-5.4,1.56-2.16.41-4.71.62-7.68.62h-23.35v-41.48h23.35Zm0,18.18c2.09,0,3.92-.2,5.49-.55,1.53-.38,2.81-.89,3.84-1.5,1.02-.66,1.81-1.4,2.31-2.26.52-.82.77-1.74.77-2.71,0-5.21-4.13-7.79-12.42-7.79h-18.09v14.81h18.1Zm0,19.93c1.95,0,3.79-.13,5.54-.38,1.75-.27,3.28-.71,4.64-1.36,1.35-.66,2.38-1.54,3.17-2.67.76-1.09,1.18-2.47,1.18-4.15,0-2.65-1.29-4.68-3.77-5.99-2.49-1.36-6.08-2.04-10.76-2.04h-18.09v16.58h18.09Z"/>
  <rect class="cls-1" x="450.53" y="193.13" width="5.24" height="41.5"/>
  <path class="cls-1" d="m464.35,213.88c0-2.86.53-5.6,1.62-8.18,1.08-2.61,2.69-4.9,4.87-6.91,2.16-1.98,4.87-3.57,8.15-4.71,3.26-1.21,7.07-1.8,11.39-1.8s8.12.59,11.36,1.8c3.25,1.15,5.96,2.73,8.12,4.71,2.17,2.01,3.79,4.3,4.87,6.91,1.09,2.58,1.62,5.32,1.62,8.18s-.53,5.59-1.62,8.2c-1.08,2.61-2.7,4.86-4.87,6.85-2.15,1.99-4.87,3.55-8.12,4.73-3.24,1.18-7.02,1.78-11.36,1.78s-8.13-.59-11.39-1.78c-3.28-1.17-5.99-2.74-8.15-4.73-2.18-1.99-3.79-4.25-4.87-6.85-1.09-2.6-1.62-5.34-1.62-8.2m5.25,0c0,2.25.41,4.48,1.2,6.65.79,2.18,2.03,4.16,3.73,5.86,1.64,1.73,3.82,3.13,6.43,4.18,2.63,1.05,5.76,1.55,9.42,1.55s6.8-.5,9.39-1.55c2.61-1.05,4.73-2.45,6.42-4.18,1.67-1.7,2.91-3.68,3.69-5.86.81-2.18,1.21-4.41,1.21-6.65s-.4-4.52-1.21-6.7c-.79-2.14-2.03-4.09-3.69-5.81-1.69-1.72-3.81-3.12-6.42-4.17-2.58-1.03-5.74-1.55-9.39-1.55s-6.79.52-9.42,1.55c-2.61,1.04-4.79,2.45-6.43,4.17-1.7,1.72-2.94,3.68-3.73,5.81-.79,2.18-1.2,4.41-1.2,6.7"/>
  <polygon class="cls-1" points="532.1 193.15 551.2 229.52 570.2 193.15 577.91 193.15 577.91 234.63 572.67 234.63 572.67 198.77 572.53 198.77 553.65 234.63 548.72 234.63 529.77 198.77 529.65 198.77 529.65 234.63 524.38 234.63 524.38 193.15 532.1 193.15"/>
  <polygon class="cls-1" points="594.16 193.15 594.16 211.15 626.9 211.15 626.9 193.15 632.18 193.15 632.18 234.63 626.9 234.63 626.9 214.52 594.16 214.52 594.16 234.63 588.88 234.63 588.88 193.15 594.16 193.15"/>
  <polygon class="cls-1" points="644.15 193.15 659.74 210.54 675.89 193.15 681.78 193.15 662.91 213.35 682.84 234.63 676.51 234.63 659.74 216.33 642.75 234.63 636.86 234.63 656.66 213.25 637.97 193.15 644.15 193.15"/>
  <path class="cls-1" d="m709.65,193.15l21.64,41.48h-5.62l-6.74-12.9h-25.09l-6.65,12.9h-5.56l22.17-41.48h5.85Zm7.5,25.22l-10.68-21.26-11.04,21.26h21.72Z"/>
  <polygon class="cls-1" points="742.12 193.15 774.26 228.24 774.41 228.24 774.41 193.15 779.68 193.15 779.68 234.63 773.8 234.63 741.66 199.53 741.49 199.53 741.49 234.63 736.22 234.63 736.22 193.15 742.12 193.15"/>
  <rect class="cls-1" x="791.1" y="193.13" width="5.27" height="41.5"/>
  <path class="cls-1" d="m829.89,193.15l21.61,41.48h-5.63l-6.71-12.9h-25.1l-6.65,12.9h-5.55l22.16-41.48h5.87Zm7.49,25.22l-10.66-21.26-11.05,21.26h21.71Z"/>
  <path class="cls-1" d="m941.39,230.2c-3.93-.14-7.42-.68-10.47-1.57-3.04-.88-5.55-2.06-7.62-3.55-2.07-1.5-3.62-3.28-4.68-5.31-1.05-2.08-1.58-4.31-1.58-6.73,0-4.92,2.1-8.87,6.27-11.78,4.14-2.92,10.18-4.53,18.09-4.8v-5.06h5.23v5.06c7.88.27,13.91,1.87,18.09,4.77,4.16,2.91,6.25,6.83,6.25,11.81,0,2.42-.56,4.65-1.62,6.73-1.06,2.03-2.67,3.81-4.71,5.31-2.06,1.49-4.59,2.67-7.61,3.55-3.01.9-6.48,1.43-10.4,1.57v4.45h-5.23v-4.45h-.01Zm-19.1-17.16c0,3.98,1.6,7.17,4.75,9.67,3.17,2.47,7.94,3.88,14.35,4.13v-27.01c-6.45.23-11.23,1.49-14.39,3.79-3.13,2.26-4.71,5.4-4.71,9.42m43.43,0c0-4.01-1.57-7.15-4.71-9.42-3.14-2.3-7.94-3.56-14.38-3.79v27.01c6.38-.25,11.16-1.67,14.35-4.13,3.14-2.5,4.74-5.7,4.74-9.67"/>
  <path class="cls-1" d="m1000.26,193.15l21.61,41.48h-5.63l-6.72-12.9h-25.11l-6.66,12.9h-5.56l22.17-41.48h5.9Zm7.5,25.22l-10.67-21.26-11.03,21.26h21.7Z"/>
  <path class="cls-1" d="m1051.41,193.15c2.47,0,4.7.27,6.71.8,2.02.53,3.73,1.28,5.2,2.29,1.43,1.03,2.53,2.29,3.31,3.76s1.17,3.14,1.17,5-.39,3.52-1.17,5c-.78,1.46-1.88,2.73-3.31,3.74-1.47,1.01-3.18,1.81-5.2,2.33-2.01.51-4.24.79-6.71.79h-19.22v17.77h-5.28v-41.48h24.5Zm-1.19,20.34c3.69,0,6.63-.72,8.9-2.09,2.27-1.4,3.41-3.55,3.41-6.4s-1.13-5-3.41-6.39c-2.27-1.4-5.21-2.09-8.9-2.09h-18.04v16.97h18.04Z"/>
  <polygon class="cls-1" points="1083.16 193.15 1102.24 229.52 1121.26 193.15 1128.97 193.15 1128.97 234.63 1123.71 234.63 1123.71 198.77 1123.55 198.77 1104.72 234.63 1099.76 234.63 1080.82 198.77 1080.67 198.77 1080.67 234.63 1075.44 234.63 1075.44 193.15 1083.16 193.15"/>
  <path class="cls-1" d="m1161.97,193.15l21.64,41.48h-5.64l-6.74-12.9h-25.12l-6.63,12.9h-5.57l22.2-41.48h5.86Zm7.49,25.22l-10.68-21.26-11.04,21.26h21.72Z"/>
  <polygon class="cls-1" points="1193.89 193.15 1193.89 215.46 1225.94 193.15 1233.07 193.15 1208.4 210.27 1234.22 234.63 1227.4 234.63 1204.45 213.04 1193.89 220.39 1193.89 234.63 1188.61 234.63 1188.61 193.15 1193.89 193.15"/>
  <path class="cls-1" d="m1249.11,231.66c-1.46-.92-2.79-2.03-4.08-3.27-1.3-1.28-2.45-2.68-3.44-4.21-1-1.57-1.81-3.25-2.41-5.06-.59-1.82-.88-3.76-.88-5.87,0-2.94.59-5.62,1.79-8.03,1.18-2.38,2.81-4.43,4.89-6.13,2.09-1.71,4.54-3.04,7.37-3.95,2.79-.91,5.82-1.42,9.05-1.42s6.48.52,9.21,1.56c2.79,1.04,5.13,2.41,7.11,4.18,2.01,1.78,3.54,3.84,4.62,6.18,1.06,2.31,1.61,4.79,1.61,7.41,0,2.15-.31,4.17-.98,6.12-.62,1.92-1.45,3.67-2.5,5.25-1.02,1.59-2.19,3-3.51,4.22-1.32,1.22-2.63,2.22-3.98,3.04v.17h12.04v2.82h-17.96v-2.07c1.53-.76,3.03-1.74,4.54-2.95,1.51-1.2,2.81-2.63,3.99-4.22,1.16-1.61,2.09-3.41,2.8-5.41.74-1.98,1.11-4.12,1.11-6.43,0-1.93-.39-3.86-1.19-5.89-.75-2-1.9-3.83-3.42-5.5-1.55-1.63-3.42-2.97-5.67-4.01-2.29-1.07-4.92-1.58-7.91-1.58-2.81,0-5.37.43-7.66,1.32-2.32.9-4.25,2.12-5.85,3.68-1.6,1.54-2.83,3.36-3.71,5.42-.89,2.07-1.3,4.28-1.3,6.66,0,2.16.33,4.22,1.08,6.21.7,1.98,1.66,3.78,2.79,5.41,1.18,1.62,2.49,3.06,4,4.33,1.49,1.26,3,2.26,4.56,2.97v2.07h-18v-2.82h11.89v-.2h0Z"/>
  <polygon class="cls-1" points="1300.48 193.15 1332.63 228.24 1332.78 228.24 1332.78 193.15 1338.05 193.15 1338.05 234.63 1332.16 234.63 1300.03 199.53 1299.86 199.53 1299.86 234.63 1294.62 234.63 1294.62 193.15 1300.48 193.15"/>
  <path class="cls-1" d="m399.02,19.41h97.53c16.27,0,28.75,3.41,37.46,10.25,8.7,6.82,13.06,15.27,13.06,25.37,0,8.46-3.1,15.7-9.32,21.77-4.16,4.04-6.22,7.21-14.19,9.56,12.12,2.5,17.05,6.73,22.75,12.74,5.72,6.02,8.58,13.59,8.58,22.67,0,7.43-2.03,14.1-6.09,20.02-4.07,5.94-9.63,10.61-16.69,14.07-4.38,2.13-10.98,3.69-19.8,4.67-11.7,1.27-19.49,1.94-23.34,1.94h-89.95V19.41h0Zm53.59,58.02h21.74c7.8,0,13.25-1.16,16.29-3.43,3.05-2.27,4.6-5.57,4.6-9.89,0-3.99-1.55-7.11-4.6-9.35-3.04-2.26-8.39-3.38-15.96-3.38h-22.06v26.05h0Zm0,52.62h25.5c8.6,0,14.68-1.28,18.23-3.89,3.52-2.57,5.3-6.06,5.3-10.44,0-4.05-1.77-7.32-5.24-9.8-3.5-2.47-9.65-3.68-18.39-3.68h-25.39v27.81h0Z"/>
  <rect class="cls-1" x="579.53" y="19.41" width="55.96" height="143.06"/>
  <path class="cls-1" d="m765.73,143.04h-54.87l-8.02,19.42h-52.46l61.79-143.06h55.4l61.78,143.06h-55.36l-8.26-19.42Zm-10.53-35.13l-16.91-42.85-16.39,42.85h33.3Z"/>
  <polygon class="cls-1" points="841.8 19.41 893.24 19.41 950.34 98.54 950.34 19.41 1003.01 19.41 1003.01 162.46 950.34 162.46 893.56 83.91 893.56 162.46 841.8 162.46 841.8 19.41"/>
  <polygon class="cls-1" points="1034.07 19.41 1172.77 19.41 1172.77 54.27 1089.42 54.27 1089.42 72.69 1157.72 72.69 1157.72 104.59 1089.42 104.59 1089.42 126.87 1175.25 126.87 1175.25 162.46 1034.07 162.46 1034.07 19.41"/>
  <path class="cls-1" d="m1338.05,162.46h-146.2v-35.96h146.2v35.96Zm-2.6-107.14h-142.15V19.41h142.15v35.91Zm-12.76,54.29h-117.15v-36.74h117.15v36.74Z"/>
  <path class="cls-1" d="m1405.05,156.62h-14.56l-2.13,5.84h-13.93l16.41-43.02h14.69l16.39,43.02h-14.7l-2.17-5.84Zm-2.79-10.53l-4.49-12.91-4.36,12.91h8.85Z"/>
  <polygon class="cls-1" points="1449.83 119.44 1486.65 119.44 1486.65 129.95 1464.54 129.95 1464.54 135.49 1482.66 135.49 1482.66 145.04 1464.54 145.04 1464.54 151.74 1487.34 151.74 1487.34 162.46 1449.83 162.46 1449.83 119.44"/>
  <rect class="cls-1" x="1425.8" y="146.04" width="16.41" height="16.43"/>
  <rect class="cls-1" x="1492.05" y="146.04" width="16.45" height="16.43"/>
  <polygon class="cls-1" points="401.8 309.9 401.8 284.37 419.21 284.37 419.21 288.11 406.01 288.11 406.01 294.89 418.22 294.89 418.22 298.51 406.01 298.51 406.01 306.08 419.41 306.08 419.41 309.9 401.8 309.9"/>
  <polygon class="cls-1" points="441.28 288.41 441.28 309.9 437.03 309.9 437.03 288.41 429.35 288.41 429.35 284.37 448.95 284.37 448.95 288.41 441.28 288.41"/>
  <path class="cls-1" d="m473.39,309.9l-2.32-6.73h-9.54l-2.38,6.73h-4.4l9.35-25.64h4.51l9.31,25.64h-4.53Zm-7.06-21.26l-3.71,11.1h7.31l-3.6-11.1Z"/>
  <rect class="cls-1" x="488.44" y="284.37" width="4.23" height="25.54"/>
  <path class="cls-1" d="m524.47,292.13c0,2.75-.91,4.86-2.71,6.32-.73.6-1.52,1.02-2.4,1.28-.87.23-2.02.35-3.44.35h-6.12v9.82h-4.25v-25.54h9.83c.77,0,1.45.02,2.06.07.61.04,1.15.11,1.63.22.5.09.92.23,1.31.42.38.18.77.39,1.12.64,1.99,1.45,2.97,3.58,2.97,6.42m-4.17.12c0-1.47-.4-2.53-1.25-3.18-.84-.67-2.19-1-4.08-1h-5.21v8.36h5.59c1.69,0,2.94-.33,3.74-.97.81-.69,1.21-1.75,1.21-3.21"/>
  <polygon class="cls-1" points="535.68 309.9 535.68 284.37 553.08 284.37 553.08 288.11 539.88 288.11 539.88 294.89 552.1 294.89 552.1 298.51 539.88 298.51 539.88 306.08 553.31 306.08 553.31 309.9 535.68 309.9"/>
  <rect class="cls-1" x="564.91" y="284.37" width="4.24" height="25.54"/>
  <path class="cls-1" d="m598.31,309.9l-2.32-6.73h-9.54l-2.39,6.73h-4.39l9.35-25.64h4.51l9.32,25.64h-4.54Zm-7.07-21.26l-3.71,11.1h7.33l-3.62-11.1Z"/>
  <polygon class="cls-1" points="638.56 288.41 638.56 309.9 634.31 309.9 634.31 288.41 626.64 288.41 626.64 284.37 646.22 284.37 646.22 288.41 638.56 288.41"/>
  <path class="cls-1" d="m678.64,297.15c0,1.98-.28,3.81-.83,5.44-.56,1.67-1.35,3.07-2.36,4.25-1.03,1.15-2.25,2.06-3.66,2.7-1.44.67-3.01.98-4.74.98s-3.33-.31-4.76-.95c-1.42-.64-2.64-1.54-3.65-2.74-1.02-1.16-1.82-2.58-2.37-4.25-.55-1.63-.84-3.46-.84-5.44s.29-3.84.84-5.49c.56-1.64,1.35-3.07,2.38-4.22,1.04-1.2,2.25-2.1,3.68-2.73,1.43-.65,3.02-.97,4.75-.97s3.28.32,4.7.98c1.41.66,2.62,1.57,3.63,2.74,1.03,1.16,1.82,2.6,2.38,4.22.56,1.64.85,3.47.85,5.48m-4.3-.05c0-1.47-.16-2.79-.5-3.96-.34-1.18-.85-2.2-1.49-3.04-.62-.87-1.4-1.48-2.28-1.92-.93-.45-1.91-.68-3.03-.68s-2.13.22-3.03.68c-.91.44-1.68,1.06-2.3,1.92-.63.83-1.11,1.84-1.48,3.01-.35,1.19-.52,2.49-.52,3.96s.17,2.82.52,4.03c.36,1.2.85,2.2,1.49,3.07.63.84,1.42,1.5,2.33,1.92.91.48,1.92.7,3.05.7s2.11-.22,3-.7c.92-.47,1.67-1.11,2.29-1.96.63-.84,1.13-1.85,1.46-3.04.34-1.22.49-2.51.49-3.99"/>
  <polygon class="cls-1" points="699.78 299.78 699.78 309.9 695.6 309.9 695.6 299.74 686.52 284.37 691.37 284.37 697.78 296.02 704.13 284.37 708.89 284.37 699.78 299.78"/>
  <path class="cls-1" d="m756.86,297.15c0,1.98-.26,3.81-.82,5.44-.55,1.67-1.35,3.07-2.35,4.25-1,1.15-2.24,2.06-3.65,2.7-1.42.67-3.03.98-4.77.98s-3.32-.31-4.76-.95c-1.43-.64-2.65-1.54-3.66-2.74-1.01-1.16-1.78-2.58-2.33-4.25-.58-1.63-.84-3.46-.84-5.44s.27-3.84.84-5.49c.55-1.64,1.32-3.07,2.36-4.22,1.03-1.2,2.26-2.1,3.69-2.73,1.4-.65,3-.97,4.73-.97s3.3.32,4.69.98c1.42.66,2.63,1.57,3.66,2.74,1.01,1.16,1.81,2.6,2.36,4.22.59,1.64.85,3.47.85,5.48m-4.25-.05c0-1.47-.18-2.79-.53-3.96-.36-1.18-.85-2.2-1.49-3.04-.61-.87-1.38-1.48-2.28-1.92-.91-.45-1.92-.68-3.04-.68s-2.13.22-3.04.68c-.89.44-1.66,1.06-2.28,1.92-.63.83-1.13,1.84-1.47,3.01-.35,1.19-.54,2.49-.54,3.96s.19,2.82.54,4.03c.34,1.2.85,2.2,1.5,3.07.62.84,1.4,1.5,2.31,1.92.92.48,1.92.7,3.06.7s2.13-.22,3.01-.7c.89-.47,1.65-1.11,2.29-1.96.63-.84,1.11-1.85,1.45-3.04.33-1.22.51-2.51.51-3.99"/>
  <polygon class="cls-1" points="789.51 309.9 789.51 288.19 782.83 309.9 779.33 309.9 772.12 288.39 772.12 309.9 768.44 309.9 768.44 284.37 774.36 284.37 781.1 305 787.63 284.37 793.56 284.37 793.56 309.9 789.51 309.9"/>
  <rect class="cls-1" x="806.35" y="284.37" width="4.24" height="25.54"/>
  <polygon class="cls-1" points="837.88 309.9 831.72 288.41 825.62 309.9 821.18 309.9 829.28 284.37 834.03 284.37 842.27 309.9 837.88 309.9"/>
  <path class="cls-1" d="m873.98,297.15c0,1.98-.28,3.81-.83,5.44-.57,1.67-1.34,3.07-2.37,4.25-1.01,1.15-2.23,2.06-3.66,2.7-1.42.67-3,.98-4.74.98s-3.31-.31-4.75-.95c-1.42-.64-2.63-1.54-3.68-2.74-.99-1.16-1.8-2.58-2.34-4.25-.55-1.63-.83-3.46-.83-5.44s.28-3.84.83-5.49c.54-1.64,1.35-3.07,2.39-4.22,1.02-1.2,2.24-2.1,3.66-2.73,1.44-.65,3.01-.97,4.76-.97s3.29.32,4.7.98c1.42.66,2.65,1.57,3.66,2.74,1,1.16,1.8,2.6,2.35,4.22.57,1.64.85,3.47.85,5.48m-4.28-.05c0-1.47-.18-2.79-.54-3.96-.35-1.18-.83-2.2-1.45-3.04-.64-.87-1.41-1.48-2.31-1.92-.92-.45-1.92-.68-3.03-.68s-2.12.22-3.02.68c-.92.44-1.68,1.06-2.32,1.92-.62.83-1.13,1.84-1.46,3.01-.36,1.19-.52,2.49-.52,3.96s.16,2.82.52,4.03c.33,1.2.85,2.2,1.5,3.07.64.84,1.4,1.5,2.31,1.92.92.48,1.94.7,3.07.7s2.11-.22,3-.7c.91-.47,1.66-1.11,2.28-1.96.62-.84,1.11-1.85,1.47-3.04.34-1.22.5-2.51.5-3.99"/>
  <polygon class="cls-1" points="895.11 299.78 895.11 309.9 890.96 309.9 890.96 299.74 881.85 284.37 886.69 284.37 893.11 296.02 899.47 284.37 904.22 284.37 895.11 299.78"/>
  <polygon class="cls-1" points="934.56 288.16 934.56 309.9 930.29 309.9 930.29 284.37 947.01 284.37 947.01 288.16 934.56 288.16"/>
  <rect class="cls-1" x="958.09" y="284.37" width="4.23" height="25.54"/>
  <path class="cls-1" d="m991.49,309.9l-2.32-6.73h-9.53l-2.41,6.73h-4.38l9.36-25.64h4.46l9.33,25.64h-4.51Zm-7.08-21.26l-3.68,11.1h7.3l-3.62-11.1Z"/>
  <polygon class="cls-1" points="1021.71 309.9 1010.26 290.21 1010.26 309.9 1006.43 309.9 1006.43 284.37 1010.87 284.37 1022.04 304.11 1022.04 284.37 1026.09 284.37 1026.09 309.9 1021.71 309.9"/>
  <polygon class="cls-1" points="1054.04 309.9 1042.57 290.21 1042.57 309.9 1038.77 309.9 1038.77 284.37 1043.19 284.37 1054.36 304.11 1054.36 284.37 1058.43 284.37 1058.43 309.9 1054.04 309.9"/>
  <path class="cls-1" d="m1087.46,309.9l-2.32-6.73h-9.54l-2.38,6.73h-4.4l9.37-25.64h4.46l9.34,25.64h-4.53Zm-7.07-21.26l-3.71,11.1h7.34l-3.63-11.1Z"/>
  <polygon class="cls-1" points="1118.06 309.9 1110.14 297.65 1106.64 301.31 1106.64 309.9 1102.48 309.9 1102.48 284.37 1106.64 284.37 1106.61 296.17 1117.34 284.37 1122.7 284.37 1113.02 294.53 1123.32 309.9 1118.06 309.9"/>
  <path class="cls-1" d="m1154.29,297.15c0,1.98-.3,3.81-.85,5.44-.54,1.67-1.33,3.07-2.35,4.25-1,1.15-2.23,2.06-3.66,2.7-1.42.67-3,.98-4.74.98s-3.33-.31-4.76-.95c-1.42-.64-2.64-1.54-3.66-2.74-1.02-1.16-1.8-2.58-2.35-4.25-.54-1.63-.84-3.46-.84-5.44s.3-3.84.84-5.49c.55-1.64,1.35-3.07,2.36-4.22,1.05-1.2,2.26-2.1,3.7-2.73,1.43-.65,3-.97,4.76-.97s3.28.32,4.7.98c1.38.66,2.61,1.57,3.64,2.74,1,1.16,1.81,2.6,2.36,4.22.55,1.64.85,3.47.85,5.48m-4.28-.05c0-1.47-.17-2.79-.53-3.96-.35-1.18-.82-2.2-1.48-3.04-.61-.87-1.4-1.48-2.28-1.92-.92-.45-1.92-.68-3.02-.68s-2.13.22-3.02.68c-.91.44-1.69,1.06-2.31,1.92-.65.83-1.14,1.84-1.47,3.01-.36,1.19-.54,2.49-.54,3.96s.17,2.82.54,4.03c.33,1.2.83,2.2,1.48,3.07.64.84,1.42,1.5,2.32,1.92.9.48,1.93.7,3.07.7s2.1-.22,2.98-.7c.93-.47,1.69-1.11,2.31-1.96.62-.84,1.12-1.85,1.45-3.04.33-1.22.5-2.51.5-3.99"/>
  <polygon class="cls-1" points="1181.09 309.9 1181.09 288.35 1170.07 288.35 1170.07 309.9 1165.82 309.9 1165.82 284.37 1185.32 284.37 1185.32 309.9 1181.09 309.9"/>
  <path class="cls-1" d="m1220.06,297.15c0,1.98-.28,3.81-.83,5.44-.57,1.67-1.33,3.07-2.36,4.25-1.03,1.15-2.25,2.06-3.67,2.7-1.42.67-3.01.98-4.75.98s-3.32-.31-4.75-.95-2.65-1.54-3.66-2.74c-1.02-1.16-1.79-2.58-2.35-4.25-.55-1.63-.85-3.46-.85-5.44s.3-3.84.85-5.49c.56-1.64,1.33-3.07,2.37-4.22,1.04-1.2,2.26-2.1,3.7-2.73,1.41-.65,3-.97,4.74-.97s3.28.32,4.71.98c1.39.66,2.61,1.57,3.64,2.74,1.01,1.16,1.79,2.6,2.38,4.22.55,1.64.83,3.47.83,5.48m-4.28-.05c0-1.47-.18-2.79-.53-3.96-.34-1.18-.82-2.2-1.45-3.04-.63-.87-1.4-1.48-2.3-1.92-.94-.45-1.92-.68-3.04-.68s-2.11.22-3.02.68c-.91.44-1.67,1.06-2.29,1.92-.65.83-1.13,1.84-1.48,3.01-.34,1.19-.54,2.49-.54,3.96s.2,2.82.54,4.03c.35,1.2.85,2.2,1.5,3.07.61.84,1.41,1.5,2.3,1.92.92.48,1.94.7,3.07.7s2.1-.22,3-.7c.89-.47,1.67-1.11,2.29-1.96.62-.84,1.1-1.85,1.44-3.04.34-1.22.51-2.51.51-3.99"/>
  <polygon class="cls-1" points="1241.2 299.78 1241.2 309.9 1237.05 309.9 1237.05 299.74 1227.92 284.37 1232.78 284.37 1239.2 296.02 1245.56 284.37 1250.29 284.37 1241.2 299.78"/>
  <polygon class="cls-1" points="1272.44 309.9 1266.3 288.41 1260.2 309.9 1255.76 309.9 1263.86 284.37 1268.63 284.37 1276.85 309.9 1272.44 309.9"/>
  <path class="cls-1" d="m1308.56,297.15c0,1.98-.28,3.81-.84,5.44-.56,1.67-1.35,3.07-2.36,4.25-1.02,1.15-2.23,2.06-3.67,2.7-1.42.67-3.01.98-4.75.98s-3.32-.31-4.75-.95c-1.4-.64-2.65-1.54-3.65-2.74-1.01-1.16-1.81-2.58-2.35-4.25-.57-1.63-.85-3.46-.85-5.44s.28-3.84.85-5.49c.54-1.64,1.35-3.07,2.37-4.22,1.04-1.2,2.26-2.1,3.68-2.73,1.43-.65,3-.97,4.75-.97s3.28.32,4.7.98c1.42.66,2.64,1.57,3.66,2.74,1,1.16,1.79,2.6,2.35,4.22.57,1.64.86,3.47.86,5.48m-4.31-.05c0-1.47-.17-2.79-.52-3.96-.34-1.18-.81-2.2-1.45-3.04-.62-.87-1.4-1.48-2.31-1.92-.92-.45-1.91-.68-3.03-.68s-2.08.22-3.03.68c-.92.44-1.67,1.06-2.29,1.92-.64.83-1.12,1.84-1.47,3.01-.36,1.19-.52,2.49-.52,3.96s.16,2.82.52,4.03c.36,1.2.84,2.2,1.5,3.07.63.84,1.41,1.5,2.31,1.92.91.48,1.93.7,3.07.7s2.1-.22,3-.7c.91-.47,1.66-1.11,2.29-1.96.63-.84,1.11-1.85,1.46-3.04.32-1.22.47-2.51.47-3.99"/>
  <polygon class="cls-1" points="1329.7 299.78 1329.7 309.9 1325.51 309.9 1325.51 299.74 1316.42 284.37 1321.27 284.37 1327.7 296.02 1334.05 284.37 1338.78 284.37 1329.7 299.78"/>
</svg>