<?xml version="1.0" encoding="utf-8"?>
<!-- Generator: Adobe Illustrator 22.0.1, SVG Export Plug-In . SVG Version: 6.00 Build 0)  -->
<svg version="1.1" id="Layer_1" xmlns="http://www.w3.org/2000/svg" xmlns:xlink="http://www.w3.org/1999/xlink" x="0px" y="0px"
	 viewBox="0 0 399.6 69" style="enable-background:new 0 0 399.6 69;" xml:space="preserve">
<style type="text/css">
	.st0{fill:#EE2B24;}
</style>
<g>
	<g>
		<path d="M104.1,33.6c0,8.9-5.3,13.1-15.1,13.1h-6.2v9.6h-7.1V21h14.1C99.2,21,104.1,25.3,104.1,33.6z M96.7,33.8
			c0-4.5-2.3-6.8-7.4-6.8h-6.4v13.6h5.8C94.3,40.6,96.7,38.1,96.7,33.8z"/>
		<path d="M106.4,42.6c0-8.6,5.8-14.2,15-14.2s15,5.6,15,14.2c0,8.7-5.8,14.2-15,14.2S106.4,51.3,106.4,42.6z M129.3,42.6
			c0-4.8-3.2-8-8-8c-4.8,0-8,3.2-8,8c0,4.9,3.2,8.1,8,8.1C126.1,50.7,129.3,47.5,129.3,42.6z"/>
		<path d="M140.8,18.5h6.9v37.7h-6.9V18.5z"/>
		<path d="M153.1,21c0-2.4,1.9-4.2,4.3-4.2c2.3,0,4.1,1.9,4.1,4.2c0,2.4-1.9,4.3-4.1,4.3C155,25.2,153.1,23.3,153.1,21z M153.8,29.1
			h6.9v27.2h-6.9V29.1z"/>
		<path d="M183.9,39.8l10,16.4h-7.8l-7.2-11.6l-5.3,5.2v6.5h-6.9V18.5h6.9v23l12.1-12.4h8.5L183.9,39.8z"/>
		<path d="M195.2,42.6c0-8.7,5.1-14.1,13.3-14.1c2.9,0,5.7,0.6,8,2.4v-1.9h6.8v27.2h-6.8v-2c-1.9,1.7-4.8,2.5-7.9,2.5
			C200.2,56.8,195.2,51.2,195.2,42.6z M216.6,48.2V37.1c-1.8-1.9-4.4-2.6-6.7-2.6c-4.9,0-7.8,3-7.8,8.1c0,5,2.8,8.1,7.9,8.1
			C212.2,50.7,214.8,50.1,216.6,48.2z"/>
		<path d="M230.2,47.8V34.7h-3.9v-5.7h3.9V18.5h6.8v10.6h7.8v5.7H237v12c0,3,0.8,4.3,3.6,4.3c1.1,0,2.8-0.1,4.2-0.5v5.5
			c-1.1,0.4-3.3,0.9-6.3,0.9C232.5,56.9,230.2,54,230.2,47.8z"/>
		<path d="M248.5,21c0-2.4,1.9-4.2,4.3-4.2c2.3,0,4.2,1.9,4.2,4.2c0,2.4-1.9,4.3-4.2,4.3C250.4,25.2,248.5,23.3,248.5,21z
			 M249.2,29.1h6.9v27.2h-6.9V29.1z"/>
		<path d="M279.3,39.8l10,16.4h-7.8l-7.2-11.6l-5.4,5.2v6.5h-6.8V18.5h6.8v23L281,29.1h8.5L279.3,39.8z"/>
		<path d="M292,21c0-2.4,1.9-4.2,4.3-4.2c2.3,0,4.1,1.9,4.1,4.2c0,2.4-1.9,4.3-4.1,4.3C293.9,25.2,292,23.3,292,21z M292.7,29.1h6.9
			v27.2h-6.9V29.1z"/>
		<path d="M304.2,42.6c0-8.7,5.1-14.1,13.3-14.1c2.9,0,5.7,0.6,8,2.4v-1.9h6.8v27.2h-6.8v-2c-1.9,1.7-4.8,2.5-7.9,2.5
			C309.2,56.8,304.2,51.2,304.2,42.6z M325.7,48.2V37.1c-1.8-1.9-4.4-2.6-6.7-2.6c-4.8,0-7.8,3-7.8,8.1c0,5,2.8,8.1,7.8,8.1
			C321.3,50.7,323.9,50.1,325.7,48.2z"/>
		<path d="M337,51.9c0-2.4,1.9-4.2,4.3-4.2c2.3,0,4.2,1.9,4.2,4.2s-1.9,4.3-4.2,4.3C338.9,56.2,337,54.3,337,51.9z"/>
		<path d="M351.6,64.4v-6.2c3.3,1.2,6.3,1.9,10,1.9c5.6,0,8.4-1.9,8.4-6.2v-1.1c-2,1.6-5,2.4-7.7,2.4c-8.7,0-13.5-5.3-13.5-13.1
			c0-8.2,5-13.7,13.3-13.7c2.8,0,5.8,0.6,8.1,2.4v-1.9h6.8v22.2c0,8.9-3.4,14.6-13.9,14.6C357.7,65.8,354.1,65.2,351.6,64.4z
			 M370.2,46.9v-9.7c-1.8-1.9-4.3-2.6-6.7-2.6c-4.7,0-7.8,2.8-7.8,7.6c0,4.3,2.9,7.1,7.7,7.1C365.8,49.2,368.4,48.6,370.2,46.9z"/>
		<path d="M382.6,29.1h6.8v3.9c1.8-2.7,4.6-4.3,8.3-4.5c0.6,0,1.3,0,1.8,0.2v7.6c-1.2-0.4-2.3-0.5-3.3-0.5c-5,0-6.9,3.8-6.9,7.4
			v13.2h-6.8V29.1z"/>
	</g>
</g>
<g>
	<path class="st0" d="M56.4,21.7C53.9,9,43.4,0.2,30.5,0.1C23,0,15.4,0,7.9,0C2.3,0.1,0,2.4,0,8c0,19.4,0,38.8,0,58.3
		c0,0.8,0,1.6,0,2.8c2.8,0,5.1,0,7.4,0c5.2,0,7.6-2.4,7.7-7.7c0-10,0-26.1,0-36.1C15,23,15.8,22,16.9,21.1c3.8-2.6,14.9-2.8,17.8,0
		c1.5,1.4,2,2.8,2,4.8c-0.1,6.8,0,19.5,0,26.6c1.5-0.5,2.7-0.8,3.8-1.3C52.2,46.3,58.8,34,56.4,21.7z"/>
	<path class="st0" d="M23.1,26.1h-2.9c-0.8,0-1.4,0.6-1.4,1.4v4.1c0,0.8,0.6,1.4,1.4,1.4h2.9c0.8,0,1.4-0.6,1.4-1.4v-4.1
		C24.4,26.7,23.8,26.1,23.1,26.1z"/>
	<path class="st0" d="M31.7,26.1h-2.9c-0.8,0-1.4,0.6-1.4,1.4v4.1c0,0.8,0.6,1.4,1.4,1.4h2.9c0.8,0,1.4-0.6,1.4-1.4v-4.1
		C33.1,26.7,32.4,26.1,31.7,26.1z"/>
	<path class="st0" d="M23.1,35.9h-2.9c-0.8,0-1.4,0.6-1.4,1.4v4.1c0,0.8,0.6,1.4,1.4,1.4h2.9c0.8,0,1.4-0.6,1.4-1.4v-4.1
		C24.4,36.6,23.8,35.9,23.1,35.9z"/>
	<path class="st0" d="M31.7,35.9h-2.9c-0.8,0-1.4,0.6-1.4,1.4v4.1c0,0.8,0.6,1.4,1.4,1.4h2.9c0.8,0,1.4-0.6,1.4-1.4v-4.1
		C33.1,36.6,32.4,35.9,31.7,35.9z"/>
	<path class="st0" d="M23.1,45.9h-2.9c-0.8,0-1.4,0.6-1.4,1.4v4.1c0,0.8,0.6,1.4,1.4,1.4h2.9c0.8,0,1.4-0.6,1.4-1.4v-4.1
		C24.4,46.6,23.8,45.9,23.1,45.9z"/>
</g>
</svg>
