<svg width="144" height="36" viewBox="0 0 144 36" xmlns="http://www.w3.org/2000/svg"><g fill="none" fill-rule="evenodd"><path fill="#0071BB" d="M79.118 36H144V0H79.118z"/><path fill="#50B748" d="M7.888 36h71.23V0H7.888z"/><path fill="#F37920" d="M0 36h7.888V0H0z"/><path d="M22.088 27.602h1.789c1.448 0 2.453-.719 3.011-2.156.197-.494.295-1.061.295-1.7 0-1.525-.302-2.636-.905-3.333-.545-.64-1.344-.96-2.401-.96h-1.789v8.149zm0-12.092h1.789c1.328 0 2.22-.624 2.672-1.873.166-.465.25-1.038.25-1.72 0-1.133-.288-1.99-.862-2.572-.528-.536-1.215-.805-2.06-.805h-1.789v6.97zm-4.62 16.166V4.356h6.409c1.69 0 3.216.429 4.575 1.286 1.162.726 1.991 1.851 2.49 3.377.271.813.407 1.78.407 2.897 0 1.83-.506 3.297-1.516 4.401a4.29 4.29 0 01-1.495 1.067c.95.35 1.758 1.038 2.423 2.07.437.696.762 1.598.973 2.701.106.567.16 1.2.16 1.896 0 1.728-.34 3.196-1.02 4.401a5.99 5.99 0 01-2.243 2.266c-1.086.64-2.166.958-3.237.958h-7.926zm15.902 0V4.356h12.182v4.14H37.65v7.45h5.775v4.14H37.65v7.45h7.903v4.14zm18.078-4.074h2.58c.68 0 1.254-.237 1.722-.708.467-.472.702-1.028.702-1.667V10.935a2.26 2.26 0 00-.714-1.677 2.36 2.36 0 00-1.71-.697h-2.58v19.04zm9.17-2.462c0 1.8-.656 3.34-1.97 4.619-1.313 1.278-2.898 1.917-4.754 1.917h-6.727V4.356h6.727c1.87 0 3.46.64 4.766 1.918 1.305 1.278 1.959 2.81 1.959 4.596v14.27z" fill="#FFF"/><path d="M67.158 10.409c0 .808.434 2.206 1.303 4.196.18-.216.361-.432.54-.649l.562-.713.899-1.147c.66-.836.99-1.615.99-2.336 0-.533-.075-.944-.226-1.233-.374-.908-.988-1.362-1.843-1.362-.734 0-1.312.382-1.73 1.146-.33.605-.495 1.305-.495 2.098zm1.46 18.45c.856 0 1.762-.52 2.721-1.558-1.154-1.427-2.315-3.172-3.485-5.233-.269.432-.539.88-.809 1.34-.45.995-.674 1.918-.674 2.77 0 .749.172 1.362.517 1.837.405.563.98.844 1.73.844zm10.387-9.17c-.674 2.884-1.588 5.32-2.742 7.31 1.094.966 2.045.945 2.855.945v3.785c-1.648 0-3.35-.216-5.104-1.658-1.678 1.702-3.478 2.551-5.396 2.551-2.217 0-3.91-.879-5.08-2.638-.735-1.11-1.102-2.38-1.102-3.807 0-1.399.352-2.855 1.057-4.37.12-.244.518-.907 1.191-1.99.376-.575.75-1.13 1.124-1.664l-.876-1.925a42.631 42.631 0 01-.855-1.904c-.3-.735-.509-1.399-.628-1.99a9.327 9.327 0 01-.203-1.904c0-1.211.278-2.32.831-3.33a5.51 5.51 0 012.474-2.401c.854-.447 1.799-.67 2.832-.67 1.153 0 2.211.277 3.17.832a5.598 5.598 0 012.203 2.304c.405.793.608 1.65.608 2.573 0 1.63-.594 3.18-1.776 4.65l-.922 1.147a186.633 186.633 0 00-2.317 2.963 38.6 38.6 0 003.193 5.3 23.855 23.855 0 001.619-4.932l3.844.822z" fill="#CDE5C0"/><path d="M83.738 27.602h1.788c1.45 0 2.453-.719 3.012-2.156.196-.494.295-1.061.295-1.7 0-1.525-.304-2.636-.907-3.333-.543-.64-1.343-.96-2.4-.96h-1.788v8.149zm0-12.092h1.788c1.33 0 2.22-.624 2.673-1.873.165-.465.248-1.038.248-1.72 0-1.133-.286-1.99-.86-2.572-.528-.536-1.217-.805-2.06-.805h-1.789v6.97zm-4.62 16.166V4.356h6.408c1.692 0 3.217.429 4.575 1.286 1.162.726 1.992 1.851 2.49 3.377.273.813.408 1.78.408 2.897 0 1.83-.506 3.297-1.517 4.401-.423.465-.92.82-1.494 1.067.95.35 1.758 1.038 2.422 2.07.437.696.763 1.598.974 2.701.105.567.159 1.2.159 1.896 0 1.728-.34 3.196-1.02 4.401a5.997 5.997 0 01-2.241 2.266c-1.087.64-2.167.958-3.238.958h-7.926zm22.013-21.046l-1.585 10.763h3.17l-1.585-10.763zm-2.248 14.772l-1.04 6.274h-4.457L98.21 4.379h5.888l4.754 27.297h-4.5l-1.001-6.274h-4.468zm11.899-16.884h-4.55v-4.14h13.359v4.14h-4.529v23.158h-4.28zm13.875 11.59v11.568h-4.281V4.379h4.28v11.59h5.162V4.379h4.28v27.297h-4.28V20.108z" fill="#FFF"/></g></svg>