<?xml version="1.0" encoding="UTF-8"?><svg id="Layer_2" xmlns="http://www.w3.org/2000/svg" xmlns:xlink="http://www.w3.org/1999/xlink" viewBox="0 0 849.9 324.9"><defs><filter id="drop-shadow-1" filterUnits="userSpaceOnUse"><feOffset dx="6" dy="6"/><feGaussianBlur result="blur" stdDeviation="6"/><feFlood flood-color="#000" flood-opacity="1"/><feComposite in2="blur" operator="in"/><feComposite in="SourceGraphic"/></filter><linearGradient id="linear-gradient" x1="-2235.2" y1="749" x2="-2276.6" y2="966.2" gradientTransform="translate(2448.8 -725.1)" gradientUnits="userSpaceOnUse"><stop offset="0" stop-color="#868a8d"/><stop offset="1" stop-color="#232226"/></linearGradient><linearGradient id="linear-gradient-2" x1="-1919.1" y1="792.8" x2="-1919.1" y2="981.1" gradientTransform="translate(2448.8 -725.1)" gradientUnits="userSpaceOnUse"><stop offset="0" stop-color="#c55763"/><stop offset="0" stop-color="#c24551"/><stop offset=".2" stop-color="#bf333f"/><stop offset=".3" stop-color="#be2835"/><stop offset=".5" stop-color="#be2532"/><stop offset=".6" stop-color="#b62330"/><stop offset=".7" stop-color="#a21f2c"/><stop offset=".8" stop-color="#811926"/><stop offset="1" stop-color="#59121f"/></linearGradient><linearGradient id="linear-gradient-3" x1="-2130.7" y1="770" x2="-1717.5" y2="1049.6" gradientTransform="translate(2448.8 -725.1)" gradientUnits="userSpaceOnUse"><stop offset="0" stop-color="#be2532"/><stop offset=".6" stop-color="#aa1d31"/><stop offset=".8" stop-color="#a51d31"/><stop offset=".9" stop-color="#972031"/><stop offset="1" stop-color="#8d2232"/></linearGradient><linearGradient id="linear-gradient-4" x1="-2420.2" y1="908.8" x2="-2047.7" y2="834.3" gradientTransform="translate(2448.8 -725.1)" gradientUnits="userSpaceOnUse"><stop offset="0" stop-color="#232226"/><stop offset=".1" stop-color="#2b2b2f"/><stop offset=".4" stop-color="#39393d"/><stop offset=".6" stop-color="#3e3f43"/><stop offset="1" stop-color="#4a4b4e"/></linearGradient><linearGradient id="New_Gradient_Swatch_41" x1="484.8" y1="221.5" x2="484.8" y2="91.2" gradientTransform="translate(.7 .4) scale(1 1)" gradientUnits="userSpaceOnUse"><stop offset="0" stop-color="#fff"/><stop offset="1" stop-color="#fff"/></linearGradient><linearGradient id="New_Gradient_Swatch_41-2" x1="633.1" y1="221.6" x2="633.1" y2="91.3" xlink:href="#New_Gradient_Swatch_41"/><linearGradient id="New_Gradient_Swatch_41-3" x1="733.6" y1="221.6" x2="733.6" y2="91.4" xlink:href="#New_Gradient_Swatch_41"/><linearGradient id="New_Gradient_Swatch_41-4" x1="761.2" y1="221.6" x2="761.2" y2="91.4" xlink:href="#New_Gradient_Swatch_41"/><linearGradient id="New_Gradient_Swatch_8" x1="454.3" y1="231.3" x2="454.3" y2="87.5" gradientUnits="userSpaceOnUse"><stop offset="0" stop-color="#000"/><stop offset=".9" stop-color="#0a0a0a"/><stop offset="1" stop-color="#0c0c0c"/></linearGradient><linearGradient id="New_Gradient_Swatch_19" x1="450.4" y1="228.1" x2="450.4" y2="84.3" gradientUnits="userSpaceOnUse"><stop offset="0" stop-color="#8b0003"/><stop offset="1" stop-color="#920400"/></linearGradient><linearGradient id="linear-gradient-5" x1="448.6" y1="220.6" x2="448.6" y2="88.2" gradientUnits="userSpaceOnUse"><stop offset="0" stop-color="#fff"/><stop offset="1" stop-color="#fff"/></linearGradient><linearGradient id="New_Gradient_Swatch_8-2" x1="593.3" y1="231.4" x2="593.3" y2="87.6" xlink:href="#New_Gradient_Swatch_8"/><linearGradient id="New_Gradient_Swatch_19-2" x1="589.4" y1="228.2" x2="589.4" y2="84.4" xlink:href="#New_Gradient_Swatch_19"/><linearGradient id="linear-gradient-6" x1="630.6" y1="223.8" x2="630.6" y2="88.5" xlink:href="#linear-gradient-5"/><linearGradient id="linear-gradient-7" x1="533.6" y1="220.6" x2="533.6" y2="88.2" xlink:href="#linear-gradient-5"/><linearGradient id="New_Gradient_Swatch_8-3" x1="735.3" y1="231.5" x2="735.3" y2="87.7" xlink:href="#New_Gradient_Swatch_8"/><linearGradient id="New_Gradient_Swatch_19-3" x1="731.4" y1="228.2" x2="731.4" y2="84.4" xlink:href="#New_Gradient_Swatch_19"/><linearGradient id="linear-gradient-8" x1="729.7" y1="220.6" x2="729.7" y2="88.2" xlink:href="#linear-gradient-5"/><linearGradient id="New_Gradient_Swatch_7" x1="142.3" y1="231" x2="142.3" y2="84.8" gradientUnits="userSpaceOnUse"><stop offset="0" stop-color="#1c1c1c"/><stop offset=".8" stop-color="#262626"/><stop offset="1" stop-color="#2a2a2a"/></linearGradient><linearGradient id="New_Gradient_Swatch_4" x1="178.7" y1="225.1" x2="178.7" y2="85.9" gradientUnits="userSpaceOnUse"><stop offset="0" stop-color="#464546"/><stop offset="1" stop-color="#525153"/></linearGradient><linearGradient id="linear-gradient-9" x1="102.5" y1="220.1" x2="102.5" y2="87.8" xlink:href="#linear-gradient-5"/><linearGradient id="linear-gradient-10" x1="176.9" y1="220.1" x2="176.9" y2="87.8" xlink:href="#linear-gradient-5"/></defs><g id="Layer_1-2"><path d="m219.4,37.2H57.9C26,37.2,0,63.2,0,95.1v132.3c0,31.9,26,57.9,57.9,57.9h151.7c3.3,0,2.1,2.3,2.1,2.3-3.4,9.5-1.4,20.3,5.5,28.1,5.5,6.1,13.1,9.3,20.8,9.3,4.5,0,7.9-1.1,12.1-3.3l67.7-36.4h148.1s315.3,0,315.3,0h9.6c31.9,0,59-26,59-57.9V95.1c0-31.9-26-57.9-57.9-57.9h-377.4c3.3-9.4,1.4-20-5.5-27.8C403.7,3.3,396,0,388.2,0c-4.4,0-8.8,1-12.8,3.1l-66,34.1h-89.9" style="fill:#fff; fill-rule:evenodd; stroke-width:0px;"/><g style="filter:url(#drop-shadow-1);"><path d="m238.9,292.2l72.9-108.5h1.5s27.7,38.1,27.7,38.1h27.7s-41-60.2-41-60.2l66.7-96.4,11.5,56.3v109.8s-20.9,15.7-22.7,15.7-89.5-4-89.5-4l-27.9,30-27,19.1Z" style="fill:#c5c8c9; fill-rule:evenodd; stroke-width:0px;"/><path d="m387,28l1.3-2.1-74.4,36.6h-132.7s-123,0-123,0h-3.9s-28.7,1.5-28.7,32.6c0,31.1,0,132.3,0,132.3,0,0-2,29.7,29,32.4h152.9s20.8,0,20.8,0l3.9-6.2,8.3-29.8,20-90.3-15.4-36.6,7.2-14.8,71.3-6.1,54.3-37.8,9-10.2Z" style="fill:url(#linear-gradient); fill-rule:evenodd; stroke-width:0px;"/><path d="m387,28l-75.2,110.6h-1.4s-26.2-38.4-26.2-38.4h-28.8c0,0,41.1,60.1,41.1,60.1l-45.1,66.2-21.1,30.8,27-50.5-8.3-94-3.6-19.9s37.8-4.6,39.2-5.2c1.5-.6,42.7-.6,42.7-.6l59.8-59Z" style="fill:#acb0b2; fill-rule:evenodd; stroke-width:0px;"/><path d="m237.2,296.9l72.8-37.2h484.1s27,.4,29.3-32.3V95.1s2.7-31-28.7-32.8h-398.3s-1.9,2.9-1.9,2.9l-7.4,37.7-17.7,61.6,11.6,59.2v17s-54,7.5-54,7.5l-28.7-.6-62.4,49.2" style="fill:url(#linear-gradient-2); fill-rule:evenodd; stroke-width:0px;"/><path d="m309.8,257.2h483.8c16.4,0,29.9-13.4,29.9-29.9V95.1c0-16.4-13.4-29.9-29.9-29.9h-399.1s-65.8,95.7-65.8,95.7l43.1,62.7h-31.3s-27.2-39.9-27.2-39.9l-77.4,113.2,73.9-39.7Z" style="fill:url(#linear-gradient-3); fill-rule:evenodd; stroke-width:0px;"/><path d="m295.9,161l-43.5-62.7h31.7s27.3,40,27.3,40l75.5-110.3-72.1,37.2H55.5c-16.4,0-29.9,13.4-29.9,29.9v132.3c0,16.4,13.4,29.9,29.9,29.9h174.3s66.1-96.2,66.1-96.2Z" style="fill:url(#linear-gradient-4); fill-rule:evenodd; stroke-width:0px;"/></g><path d="m748.3,116.4c-.9-1.1-2.2-1.9-3.7-2.3,3,1.3,4.3,4.4,3.5,8.6l-1.6,8.5h1.9s1.4-7.1,1.4-7.1c.6-3.2.1-5.9-1.4-7.7Z" style="fill:#871100; stroke-width:0px;"/><path d="m493.7,137.6c-2.9,7.4-9.5,13.9-16.5,15.5.2,0,.3,0,.5.1v-.2c6.9-1.5,13.4-8,16-15.4Z" style="fill:url(#New_Gradient_Swatch_41); stroke-width:0px;"/><path d="m635.2,113.8h5.4c1,0,1.8.1,2.6.3-.9-.4-2-.6-3.3-.6h-5.4c-5.2,0-8.9,2.7-10.2,7.5,1.7-4.6,5.5-7.2,10.9-7.2Z" style="fill:url(#New_Gradient_Swatch_41-2); stroke-width:0px;"/><path d="m734.8,113.5c-5.5,0-9.4,2.8-10.8,7.9,1.8-4.9,5.9-7.6,11.5-7.6h6.4c1,0,1.9.1,2.7.3-1-.4-2.1-.6-3.4-.6h-6.4Z" style="fill:url(#New_Gradient_Swatch_41-3); stroke-width:0px;"/><polygon points="748.3 131.3 775.5 131.3 775.5 131.2 748.3 131.2 748.3 131.3" style="fill:url(#New_Gradient_Swatch_41-4); stroke-width:0px;"/><path d="m502.8,178.9c1.1-5.6,0-11.1-3-15.5-1.2-1.8-2.7-3.3-4.4-4.7,5.6-4.4,9.9-11.1,11.2-18.2l3.1-16c2.1-10.8.5-19.7-4.6-26-1.6-1.9-3.5-3.6-5.7-4.9,0,0,0,0,0,0,0,0,0,0,0,0,0,0,0,0,0,0,0,0,0,0,0,0,0,0,0,0,0,0,0,0,0,0,0,0,0,0,0,0,0,0,0,0,0,0,0,0,0,0,0,0,0,0,0,0,0,0,0,0,0,0,0,0,0,0,0,0,0,0,0,0,0,0,0,0,0,0,0,0,0,0,0,0,0,0,0,0,0,0,0,0,0,0,0,0,0,0,0,0,0,0s0,0,0,0c0,0,0,0,0,0,0,0,0,0,0,0,0,0,0,0,0,0,0,0,0,0,0,0,0,0,0,0,0,0,0,0,0,0,0,0,0,0,0,0,0,0,0,0,0,0,0,0,0,0,0,0,0,0,0,0,0,0,0,0,0,0,0,0,0,0,0,0,0,0,0,0,0,0,0,0,0,0,0,0,0,0,0,0,0,0,0,0,0,0,0,0,0,0,0,0,0,0,0,0,0,0s0,0,0,0c0,0,0,0,0,0,0,0,0,0,0,0s0,0,0,0c-4.8-3-11.1-4.5-18.4-4.5h-44.1c-6.9,0-11.8,4.2-13.2,11.3l-23,118.1c-.9,4.6.5,7.4,1.8,9,.8.9,1.7,1.7,2.7,2.2,0,0,0,0,0,0s0,0,0,0c0,0,0,0,0,0,0,0,0,0,0,0,0,0,0,0,0,0,0,0,0,0,0,0,0,0,0,0,0,0,0,0,0,0,0,0,0,0,0,0,0,0,0,0,0,0,0,0,0,0,0,0,0,0s0,0,0,0c0,0,0,0,0,0s0,0,0,0c0,0,0,0,0,0,0,0,0,0,0,0s0,0,0,0c0,0,0,0,0,0,0,0,0,0,0,0,0,0,0,0,0,0,0,0,0,0,0,0s0,0,0,0c0,0,0,0,0,0,0,0,0,0,0,0,0,0,0,0,0,0,0,0,0,0,0,0,0,0,0,0,0,0,0,0,0,0,0,0,0,0,0,0,0,0,0,0,0,0,0,0s0,0,0,0c0,0,0,0,0,0,0,0,0,0,0,0,0,0,0,0,0,0,0,0,0,0,0,0s0,0,0,0c0,0,0,0,0,0,0,0,0,0,0,0,0,0,0,0,0,0,1.8,1,4,1.5,6.5,1.5h50.6c18.9,0,32.2-10.9,35.8-29.2l4.5-23.2Zm-35.4-53.8l-1.9,9.8c-1,5.2-2.6,6.5-7.9,6.5h-2.4s3.7-18.9,3.7-18.9h8.8c0,.6,0,1.4-.3,2.6Zm-18.9,51h9.1c1,0,1.9,0,2.7.3.4,1,.3,2.6,0,3.5l-2.5,13.1c-.3,1.6-1.2,3.6-3.6,3.6h-9.7s4-20.4,4-20.4Z" style="fill:url(#New_Gradient_Swatch_8); stroke-width:0px;"/><path d="m498.9,175.7c1.1-5.6,0-11.1-3-15.5-1.2-1.8-2.7-3.3-4.4-4.7,5.6-4.4,9.9-11.1,11.2-18.2l3.1-16c2.1-10.8.5-19.7-4.6-26-1.6-1.9-3.5-3.6-5.7-4.9,0,0,0,0,0,0,0,0,0,0,0,0s0,0,0,0,0,0,0,0c0,0,0,0,0,0,0,0,0,0,0,0,0,0,0,0,0,0,0,0,0,0,0,0,0,0,0,0,0,0,0,0,0,0,0,0s0,0,0,0,0,0,0,0c0,0,0,0,0,0,0,0,0,0,0,0,0,0,0,0,0,0,0,0,0,0,0,0,0,0,0,0,0,0,0,0,0,0,0,0,0,0,0,0,0,0,0,0,0,0,0,0,0,0,0,0,0,0,0,0,0,0,0,0,0,0,0,0,0,0,0,0,0,0,0,0,0,0,0,0,0,0,0,0,0,0,0,0,0,0,0,0,0,0,0,0,0,0,0,0,0,0,0,0,0,0,0,0,0,0,0,0,0,0,0,0,0,0,0,0,0,0,0,0,0,0,0,0,0,0,0,0,0,0,0,0,0,0,0,0,0,0,0,0,0,0,0,0,0,0,0,0,0,0,0,0,0,0,0,0,0,0,0,0,0,0-4.8-3-11.1-4.5-18.4-4.5h-44.1c-6.9,0-11.8,4.2-13.2,11.3l-23,118.1c-.9,4.6.5,7.4,1.8,9,.8.9,1.7,1.7,2.7,2.2,0,0,0,0,0,0,0,0,0,0,0,0,0,0,0,0,0,0,0,0,0,0,0,0s0,0,0,0c0,0,0,0,0,0,0,0,0,0,0,0,0,0,0,0,0,0,0,0,0,0,0,0,0,0,0,0,0,0,0,0,0,0,0,0,0,0,0,0,0,0s0,0,0,0c0,0,0,0,0,0,0,0,0,0,0,0,0,0,0,0,0,0,0,0,0,0,0,0,0,0,0,0,0,0,0,0,0,0,0,0,0,0,0,0,0,0,0,0,0,0,0,0,0,0,0,0,0,0,0,0,0,0,0,0,0,0,0,0,0,0,0,0,0,0,0,0,0,0,0,0,0,0,0,0,0,0,0,0,0,0,0,0,0,0s0,0,0,0c0,0,0,0,0,0,0,0,0,0,0,0,0,0,0,0,0,0,0,0,0,0,0,0,0,0,0,0,0,0,0,0,0,0,0,0,0,0,0,0,0,0,0,0,0,0,0,0,0,0,0,0,0,0,0,0,0,0,0,0,1.8,1,4,1.5,6.5,1.5h50.6c18.9,0,32.2-10.9,35.8-29.2l4.5-23.2Zm-35.4-53.8l-1.9,9.8c-1,5.2-2.6,6.5-7.9,6.5h-2.4s3.7-18.9,3.7-18.9h8.8c0,.6,0,1.4-.3,2.6Zm-18.9,51h9.1c1,0,1.9,0,2.7.3.4,1,.3,2.6,0,3.5l-2.5,13.1c-.3,1.6-1.2,3.6-3.6,3.6h-9.7s4-20.4,4-20.4Z" style="fill:url(#New_Gradient_Swatch_19); stroke-width:0px;"/><path d="m494.9,95.4c-4.3-5.2-11.3-7.9-20.8-7.9h-44.1s0,0,0,0c-4.9,0-8,2.7-9,7.9l-23,118.1c-.5,2.4-.1,4.2.9,5.5,1.2,1.4,3.1,2.1,5.9,2.1h50.6s0,0,0,0c16.7,0,28.5-9.6,31.6-25.8l4.5-23.2c.9-4.5,0-8.8-2.3-12.3-2.2-3.2-5.5-5.6-9.5-6.9,7.5-2.8,14.1-10.8,15.8-19.1l3.1-16c1.9-9.6.6-17.1-3.8-22.4Zm-57,70.5h12.6c4,0,6.8,1,8.5,3,1.5,1.8,1.9,4.3,1.3,7.5l-2.5,13.1c-.8,4.3-3.8,7-7.7,7h-17.9s5.9-30.5,5.9-30.5Zm29.3-44.3l-1.9,9.8c-1.4,7.2-4.7,9.9-12,9.9h-10.6s5.6-29,5.6-29h12.6c2.6,0,4.4.7,5.5,2,1.2,1.5,1.5,4,.9,7.4Z" style="fill:url(#linear-gradient-5); stroke-width:0px;"/><path d="m684.3,98c-1.2-1.5-3-3.1-5.3-4.6,0,0,0,0,0,0,0,0,0,0,0,0,0,0,0,0,0,0s0,0,0,0c0,0,0,0,0,0,0,0,0,0,0,0s0,0,0,0,0,0,0,0c0,0,0,0,0,0,0,0,0,0,0,0,0,0,0,0,0,0,0,0,0,0,0,0,0,0,0,0,0,0,0,0,0,0,0,0,0,0,0,0,0,0,0,0,0,0,0,0,0,0,0,0,0,0s0,0,0,0c0,0,0,0,0,0,0,0,0,0,0,0s0,0,0,0c0,0,0,0,0,0,0,0,0,0,0,0s0,0,0,0c0,0,0,0,0,0,0,0,0,0,0,0s0,0,0,0c0,0,0,0,0,0,0,0,0,0,0,0,0,0,0,0,0,0,0,0,0,0,0,0,0,0,0,0,0,0,0,0,0,0,0,0,0,0,0,0,0,0,0,0,0,0,0,0,0,0,0,0,0,0,0,0,0,0,0,0,0,0,0,0,0,0,0,0,0,0,0,0-3.8-2.4-9.2-4.2-16.9-4.2h-26.6c-19.6,0-33.6,12-37.5,32.2l-14.8,76.1c-.1.8-.3,1.5-.4,2.2,0,0,0,0,0,0-.4-.4-.8-.8-1.3-1.1,0,0,0,0,0,0,0,0,0,0,0,0,0,0,0,0,0,0,0,0,0,0,0,0s0,0,0,0c0,0,0,0,0,0,0,0,0,0,0,0,0,0,0,0,0,0,0,0,0,0,0,0,0,0,0,0,0,0,0,0,0,0,0,0,0,0,0,0,0,0,0,0,0,0,0,0,0,0,0,0,0,0,0,0,0,0,0,0,0,0,0,0,0,0,0,0,0,0,0,0,0,0,0,0,0,0,0,0,0,0,0,0,0,0,0,0,0,0,0,0,0,0,0,0,0,0,0,0,0,0,0,0,0,0,0,0,0,0,0,0,0,0,0,0,0,0,0,0,0,0,0,0,0,0,0,0,0,0,0,0,0,0,0,0,0,0,0,0,0,0,0,0,0,0,0,0,0,0,0,0,0,0,0,0,0,0,0,0,0,0,0,0,0,0,0,0,0,0,0,0,0,0,0,0,0,0,0,0,0,0,0,0,0,0,0,0,0,0,0,0,0,0,0,0,0,0s0,0,0,0c-.8-.5-1.7-.7-2.6-.7h-29.6s19.4-99.5,19.4-99.5c.3-1.4,0-2.9-1-4.1-.4-.4-.8-.8-1.3-1.1,0,0,0,0,0,0,0,0,0,0,0,0,0,0,0,0,0,0,0,0,0,0,0,0s0,0,0,0c0,0,0,0,0,0,0,0,0,0,0,0,0,0,0,0,0,0,0,0,0,0,0,0,0,0,0,0,0,0,0,0,0,0,0,0,0,0,0,0,0,0,0,0,0,0,0,0,0,0,0,0,0,0,0,0,0,0,0,0,0,0,0,0,0,0,0,0,0,0,0,0,0,0,0,0,0,0,0,0,0,0,0,0,0,0,0,0,0,0,0,0,0,0,0,0,0,0,0,0,0,0,0,0,0,0,0,0,0,0,0,0,0,0,0,0,0,0,0,0,0,0,0,0,0,0,0,0,0,0,0,0,0,0,0,0,0,0,0,0,0,0,0,0,0,0,0,0,0,0,0,0,0,0,0,0,0,0,0,0,0,0,0,0,0,0,0,0,0,0,0,0,0,0,0,0,0,0,0,0,0,0,0,0,0,0,0,0,0,0,0,0,0,0,0,0,0,0s0,0,0,0c-.8-.5-1.7-.7-2.6-.7,0,0-29.3,0-29.3,0-2.4,0-4.4,1.7-4.8,4l-24.4,125.5c-.9,4.6.5,7.4,1.8,9,.8.9,1.7,1.7,2.7,2.2,0,0,0,0,0,0,0,0,0,0,0,0,0,0,0,0,0,0,0,0,0,0,0,0,0,0,0,0,0,0s0,0,0,0c0,0,0,0,0,0s0,0,0,0c0,0,0,0,0,0,0,0,0,0,0,0s0,0,0,0c0,0,0,0,0,0,0,0,0,0,0,0,0,0,0,0,0,0,0,0,0,0,0,0s0,0,0,0c0,0,0,0,0,0,0,0,0,0,0,0,0,0,0,0,0,0s0,0,0,0c0,0,0,0,0,0,0,0,0,0,0,0,0,0,0,0,0,0,0,0,0,0,0,0s0,0,0,0c0,0,0,0,0,0,0,0,0,0,0,0,0,0,0,0,0,0,0,0,0,0,0,0,0,0,0,0,0,0,0,0,0,0,0,0,0,0,0,0,0,0s0,0,0,0,0,0,0,0c0,0,0,0,0,0,0,0,0,0,0,0,0,0,0,0,0,0,0,0,0,0,0,0,0,0,0,0,0,0,1.8,1,4,1.5,6.5,1.5,0,0,60.4,0,60.4,0,2.4,0,4.4-1.7,4.8-4l3.7-18.8c.6,4.9,2.3,9.1,5.1,12.4,1.2,1.5,3,3.1,5.3,4.6,0,0,0,0,0,0,0,0,0,0,0,0,0,0,0,0,0,0,0,0,0,0,0,0,0,0,0,0,0,0,0,0,0,0,0,0,0,0,0,0,0,0,0,0,0,0,0,0,0,0,0,0,0,0,0,0,0,0,0,0s0,0,0,0c0,0,0,0,0,0,0,0,0,0,0,0s0,0,0,0,0,0,0,0c0,0,0,0,0,0,0,0,0,0,0,0,0,0,0,0,0,0,0,0,0,0,0,0,0,0,0,0,0,0,0,0,0,0,0,0,0,0,0,0,0,0,0,0,0,0,0,0,0,0,0,0,0,0s0,0,0,0c0,0,0,0,0,0,0,0,0,0,0,0s0,0,0,0c0,0,0,0,0,0,0,0,0,0,0,0s0,0,0,0c0,0,0,0,0,0,0,0,0,0,0,0s0,0,0,0c0,0,0,0,0,0,0,0,0,0,0,0s0,0,0,0c0,0,0,0,0,0,0,0,0,0,0,0,3.8,2.4,9.2,4.3,16.9,4.3,0,0,26.5,0,26.5,0,19.7,0,33.7-12,37.6-32l14.8-76.1c2-10.5.5-19.3-4.5-25.3Zm-60.9,95.5l12.5-64.5c.6-3.2,2.4-4.7,5.6-4.7h0s0,0,0,0h0s4.6,0,4.6,0c0,.3,0,.7-.1,1.2l-12.5,64.5c-.6,3.1-2.3,4.7-5.3,4.7h-4.9c0-.3,0-.7.1-1.2Z" style="fill:url(#New_Gradient_Swatch_8-2); stroke-width:0px;"/><path d="m680.4,94.8c-1.2-1.5-3-3.1-5.3-4.6,0,0,0,0,0,0s0,0,0,0,0,0,0,0c0,0,0,0,0,0,0,0,0,0,0,0,0,0,0,0,0,0,0,0,0,0,0,0,0,0,0,0,0,0,0,0,0,0,0,0s0,0,0,0c0,0,0,0,0,0,0,0,0,0,0,0,0,0,0,0,0,0,0,0,0,0,0,0s0,0,0,0c0,0,0,0,0,0,0,0,0,0,0,0,0,0,0,0,0,0,0,0,0,0,0,0,0,0,0,0,0,0,0,0,0,0,0,0,0,0,0,0,0,0,0,0,0,0,0,0,0,0,0,0,0,0,0,0,0,0,0,0,0,0,0,0,0,0,0,0,0,0,0,0,0,0,0,0,0,0,0,0,0,0,0,0,0,0,0,0,0,0,0,0,0,0,0,0,0,0,0,0,0,0,0,0,0,0,0,0,0,0,0,0,0,0,0,0,0,0,0,0,0,0,0,0,0,0,0,0,0,0,0,0,0,0,0,0,0,0,0,0,0,0,0,0-3.8-2.4-9.2-4.2-16.9-4.2h-26.6c-19.6,0-33.6,12-37.5,32.2l-14.8,76.1c-.1.8-.3,1.5-.4,2.2,0,0,0,0,0,0-.4-.4-.8-.8-1.3-1.1,0,0,0,0,0,0,0,0,0,0,0,0,0,0,0,0,0,0,0,0,0,0,0,0,0,0,0,0,0,0,0,0,0,0,0,0,0,0,0,0,0,0,0,0,0,0,0,0,0,0,0,0,0,0,0,0,0,0,0,0,0,0,0,0,0,0,0,0,0,0,0,0,0,0,0,0,0,0,0,0,0,0,0,0,0,0,0,0,0,0,0,0,0,0,0,0,0,0,0,0,0,0,0,0,0,0,0,0,0,0,0,0,0,0,0,0,0,0,0,0,0,0,0,0,0,0,0,0,0,0,0,0,0,0,0,0,0,0,0,0,0,0,0,0,0,0,0,0,0,0,0,0,0,0,0,0,0,0,0,0,0,0,0,0,0,0,0,0,0,0,0,0,0,0,0,0,0,0,0,0s0,0,0,0c0,0,0,0,0,0,0,0,0,0,0,0,0,0,0,0,0,0,0,0,0,0,0,0,0,0,0,0,0,0,0,0,0,0,0,0,0,0,0,0,0,0,0,0,0,0,0,0-.8-.5-1.7-.7-2.6-.7h-29.6s19.4-99.5,19.4-99.5c.3-1.4,0-2.9-1-4.1-.4-.4-.8-.8-1.3-1.1,0,0,0,0,0,0,0,0,0,0,0,0,0,0,0,0,0,0,0,0,0,0,0,0,0,0,0,0,0,0,0,0,0,0,0,0,0,0,0,0,0,0,0,0,0,0,0,0,0,0,0,0,0,0,0,0,0,0,0,0,0,0,0,0,0,0,0,0,0,0,0,0,0,0,0,0,0,0,0,0,0,0,0,0,0,0,0,0,0,0,0,0,0,0,0,0,0,0,0,0,0,0,0,0,0,0,0,0,0,0,0,0,0,0,0,0,0,0,0,0,0,0,0,0,0,0,0,0,0,0,0,0,0,0,0,0,0,0,0,0,0,0,0,0,0,0,0,0,0,0,0,0,0,0,0,0,0,0,0,0,0,0,0,0,0,0,0,0,0,0,0,0,0,0,0,0,0,0,0,0s0,0,0,0c0,0,0,0,0,0,0,0,0,0,0,0,0,0,0,0,0,0,0,0,0,0,0,0,0,0,0,0,0,0,0,0,0,0,0,0,0,0,0,0,0,0,0,0,0,0,0,0-.8-.5-1.7-.7-2.6-.7,0,0-29.3,0-29.3,0-2.4,0-4.4,1.7-4.8,4l-24.4,125.5c-.9,4.6.5,7.4,1.8,9,.8.9,1.7,1.7,2.7,2.2,0,0,0,0,0,0,0,0,0,0,0,0,0,0,0,0,0,0,0,0,0,0,0,0,0,0,0,0,0,0,0,0,0,0,0,0s0,0,0,0c0,0,0,0,0,0,0,0,0,0,0,0,0,0,0,0,0,0,0,0,0,0,0,0,0,0,0,0,0,0,0,0,0,0,0,0,0,0,0,0,0,0,0,0,0,0,0,0,0,0,0,0,0,0,0,0,0,0,0,0,0,0,0,0,0,0,0,0,0,0,0,0,0,0,0,0,0,0,0,0,0,0,0,0s0,0,0,0,0,0,0,0c0,0,0,0,0,0,0,0,0,0,0,0,0,0,0,0,0,0,0,0,0,0,0,0,0,0,0,0,0,0,0,0,0,0,0,0,0,0,0,0,0,0,0,0,0,0,0,0,0,0,0,0,0,0,0,0,0,0,0,0,0,0,0,0,0,0s0,0,0,0,0,0,0,0c0,0,0,0,0,0,0,0,0,0,0,0,0,0,0,0,0,0,1.8,1,4,1.5,6.5,1.5,0,0,60.4,0,60.4,0,2.4,0,4.4-1.7,4.8-4l3.7-18.8c.6,4.9,2.3,9.1,5.1,12.4,1.2,1.5,3,3.1,5.3,4.6,0,0,0,0,0,0,0,0,0,0,0,0,0,0,0,0,0,0,0,0,0,0,0,0s0,0,0,0c0,0,0,0,0,0,0,0,0,0,0,0,0,0,0,0,0,0,0,0,0,0,0,0,0,0,0,0,0,0,0,0,0,0,0,0,0,0,0,0,0,0,0,0,0,0,0,0,0,0,0,0,0,0,0,0,0,0,0,0,0,0,0,0,0,0,0,0,0,0,0,0,0,0,0,0,0,0,0,0,0,0,0,0s0,0,0,0c0,0,0,0,0,0,0,0,0,0,0,0s0,0,0,0c0,0,0,0,0,0,0,0,0,0,0,0,0,0,0,0,0,0s0,0,0,0c0,0,0,0,0,0,0,0,0,0,0,0,0,0,0,0,0,0s0,0,0,0c0,0,0,0,0,0,0,0,0,0,0,0,0,0,0,0,0,0,0,0,0,0,0,0,0,0,0,0,0,0,0,0,0,0,0,0,0,0,0,0,0,0,0,0,0,0,0,0,3.8,2.4,9.2,4.3,16.9,4.3,0,0,26.5,0,26.5,0,19.7,0,33.7-12,37.6-32l14.8-76.1c2-10.5.5-19.3-4.5-25.3Zm-60.9,95.5l12.5-64.5c.6-3.2,2.4-4.7,5.6-4.7h0s0,0,0,0h0s4.6,0,4.6,0c0,.3,0,.7-.1,1.2l-12.5,64.5c-.6,3.1-2.3,4.7-5.3,4.7h-4.9c0-.3,0-.7.1-1.2Z" style="fill:url(#New_Gradient_Swatch_19-2); stroke-width:0px;"/><path d="m611.5,186.6c-1.1,5.5,1.7,8.7,7.3,8.7h5.1c5.3,0,9-3.1,10.1-8.7l12.5-64.5c.8-3.9-.4-6.8-3.3-8.1-.8-.2-1.7-.3-2.6-.3h-5.4c-5.3,0-9.2,2.6-10.9,7.2-.1.4-.2.8-.3,1.2l-12.5,64.5Z" style="fill:none; stroke-width:0px;"/><path d="m630.9,223.8h-26.5c-8.7,0-15.4-2.6-19.5-7.6-4.3-5.2-5.6-12.9-3.7-22.3l14.8-76.1c3.6-18.7,16.1-29.4,34.1-29.4h26.6c8.8,0,15.3,2.5,19.4,7.5,4.3,5.2,5.6,13,3.7,22.5l-14.8,76.1c-3.6,18.3-16.4,29.2-34.3,29.2Zm5.2-107c-4.5,0-7.6,2.2-8.8,6.4h0c-.2.7-.4,1.4-.5,2.1l-12.5,63.8c-.3,1.7-.4,4.1,1,5.9,1.2,1.4,3.2,2.1,5.9,2.1h5.1c5.1,0,8.6-3,9.6-8.2l12.5-63.8c.5-2.5.1-4.6-1-6-.7-.8-1.6-1.4-2.8-1.7h-.2c-.8-.4-1.7-.6-2.7-.6h-5.4s0,0,0,0Z" style="fill:url(#linear-gradient-6); stroke-width:0px;"/><path d="m565,221.2l5.2-26.6h0s-38.6,0-38.6,0l20.8-107h0s-30.6,0-30.6,0l-24.5,126c-.5,2.4-.1,4.2.9,5.5.6.7,1.4,1.2,2.4,1.6,1,.4,2.2.5,3.6.5h24.5s36.2,0,36.2,0h.2Z" style="fill:url(#linear-gradient-7); stroke-width:0px;"/><path d="m785.9,98.1c-1.2-1.5-3-3.1-5.3-4.6,0,0,0,0,0,0,0,0,0,0,0,0,0,0,0,0,0,0,0,0,0,0,0,0,0,0,0,0,0,0,0,0,0,0,0,0s0,0,0,0c0,0,0,0,0,0,0,0,0,0,0,0,0,0,0,0,0,0,0,0,0,0,0,0,0,0,0,0,0,0,0,0,0,0,0,0,0,0,0,0,0,0,0,0,0,0,0,0,0,0,0,0,0,0s0,0,0,0c0,0,0,0,0,0,0,0,0,0,0,0,0,0,0,0,0,0s0,0,0,0c0,0,0,0,0,0,0,0,0,0,0,0s0,0,0,0c0,0,0,0,0,0,0,0,0,0,0,0s0,0,0,0c0,0,0,0,0,0,0,0,0,0,0,0s0,0,0,0c0,0,0,0,0,0,0,0,0,0,0,0s0,0,0,0c0,0,0,0,0,0,0,0,0,0,0,0,0,0,0,0,0,0,0,0,0,0,0,0,0,0,0,0,0,0,0,0,0,0,0,0-3.8-2.4-9.2-4.2-16.9-4.2h-28.5c-19.6,0-33.6,12-37.5,32.2l-14.8,75.9c-2,10.5-.5,19.3,4.5,25.3,1.2,1.5,3,3.1,5.3,4.6,0,0,0,0,0,0s0,0,0,0c0,0,0,0,0,0,0,0,0,0,0,0s0,0,0,0c0,0,0,0,0,0,0,0,0,0,0,0s0,0,0,0c0,0,0,0,0,0,0,0,0,0,0,0,0,0,0,0,0,0,0,0,0,0,0,0,0,0,0,0,0,0,0,0,0,0,0,0,0,0,0,0,0,0,0,0,0,0,0,0,0,0,0,0,0,0,0,0,0,0,0,0,0,0,0,0,0,0,0,0,0,0,0,0,0,0,0,0,0,0,0,0,0,0,0,0,0,0,0,0,0,0,0,0,0,0,0,0s0,0,0,0c0,0,0,0,0,0,0,0,0,0,0,0,0,0,0,0,0,0,0,0,0,0,0,0,0,0,0,0,0,0,0,0,0,0,0,0,0,0,0,0,0,0,0,0,0,0,0,0,0,0,0,0,0,0,0,0,0,0,0,0,0,0,0,0,0,0,0,0,0,0,0,0,0,0,0,0,0,0,0,0,0,0,0,0,3.8,2.4,9.2,4.2,16.9,4.2,0,0,48.2,0,48.2,0,7.2,0,12.3-4,13.7-10.8l10.9-56.2c.8-4,.2-7.3-1.8-9.7-.5-.6-1.2-1.3-2.1-1.8,0,0,0,0,0,0,0,0,0,0,0,0,0,0,0,0,0,0,0,0,0,0,0,0,0,0,0,0,0,0,0,0,0,0,0,0s0,0,0,0c0,0,0,0,0,0,0,0,0,0,0,0,0,0,0,0,0,0,0,0,0,0,0,0,0,0,0,0,0,0,0,0,0,0,0,0,0,0,0,0,0,0,0,0,0,0,0,0,0,0,0,0,0,0,0,0,0,0,0,0,0,0,0,0,0,0,0,0,0,0,0,0,0,0,0,0,0,0s0,0,0,0c0,0,0,0,0,0,0,0,0,0,0,0,0,0,0,0,0,0,0,0,0,0,0,0s0,0,0,0c0,0,0,0,0,0,0,0,0,0,0,0,0,0,0,0,0,0,0,0,0,0,0,0,0,0,0,0,0,0,0,0,0,0,0,0,0,0,0,0,0,0,0,0,0,0,0,0,0,0,0,0,0,0,0,0,0,0,0,0,0,0,0,0,0,0,0,0,0,0,0,0,0,0,0,0,0,0-1.5-1-3.6-1.7-6.5-1.7,0,0-35.1,0-35.1,0-1,0-2,.3-2.8.9l4-20.8c.7-3.6,2.7-5.2,6.3-5.2h5.8c0,.4,0,1-.1,1.7l-1.6,8.5c-.3,1.4,0,2.9,1,4.1.4.4.8.8,1.3,1.1,0,0,0,0,0,0,0,0,0,0,0,0s0,0,0,0c0,0,0,0,0,0,0,0,0,0,0,0,0,0,0,0,0,0,0,0,0,0,0,0,0,0,0,0,0,0,0,0,0,0,0,0,0,0,0,0,0,0,0,0,0,0,0,0,0,0,0,0,0,0,0,0,0,0,0,0,0,0,0,0,0,0,0,0,0,0,0,0,0,0,0,0,0,0,0,0,0,0,0,0,0,0,0,0,0,0,0,0,0,0,0,0,0,0,0,0,0,0,0,0,0,0,0,0,0,0,0,0,0,0,0,0,0,0,0,0,0,0,0,0,0,0,0,0,0,0,0,0,0,0,0,0,0,0,0,0,0,0,0,0,0,0,0,0,0,0,0,0,0,0,0,0,0,0,0,0,0,0,0,0,0,0,0,0,0,0,0,0,0,0,0,0,0,0,0,0,0,0,0,0,0,0,0,0,0,0,0,0,0,0,0,0,0,0,0,0,0,0,0,0,0,0,0,0,0,0,0,0,0,0,0,0,.8.5,1.7.7,2.6.7,0,0,29.3,0,29.3,0,2.4,0,4.4-1.7,4.8-4l2.9-14.7c2-10.5.5-19.3-4.5-25.3Zm-58.5,82.6s0,0,0,0c0,0,0,0,0,0,0,0,0,0,0,0,0,0,0,0,0,0,0,0,0,0,0,0,0,0,0,0,0,0,0,0,0,0,0,0,0,0,0,0,0,0,0,0,0,0,0,0,0,0,0,0,0,0,0,0,0,0,0,0,0,0,0,0,0,0,0,0,0,0,0,0,0,0,0,0,0,0,0,0,0,0,0,0,0,0,0,0,0,0,0,0,0,0,0,0,0,0,0,0,0,0,0,0,0,0,0,0,0,0,0,0,0,0s0,0,0,0c0,0,0,0,0,0,0,0,0,0,0,0,0,0,0,0,0,0,0,0,0,0,0,0,0,0,0,0,0,0,0,0,0,0,0,0,0,0,0,0,0,0,0,0,0,0,0,0,0,0,0,0,0,0,0,0,0,0,0,0,0,0,0,0,0,0,0,0,0,0,0,0,0,0,0,0,0,0,0,0,0,0,0,0,0,0,0,0,0,0,0,0,0,0,0,0,0,0,0,0,0,0,0,0,0,0,0,0,.8.5,1.7.7,2.6.7h3.7s-2.3,11.7-2.3,11.7h-10.9c0,0-.1,0-.2,0,0-.4,0-1,.2-1.7l2.7-13.8c0,.1.2.3.3.4.4.4.8.8,1.3,1.1Z" style="fill:url(#New_Gradient_Swatch_8-3); stroke-width:0px;"/><path d="m782,94.9c-1.2-1.5-3-3.1-5.3-4.6,0,0,0,0,0,0,0,0,0,0,0,0,0,0,0,0,0,0,0,0,0,0,0,0,0,0,0,0,0,0,0,0,0,0,0,0,0,0,0,0,0,0,0,0,0,0,0,0,0,0,0,0,0,0,0,0,0,0,0,0,0,0,0,0,0,0s0,0,0,0c0,0,0,0,0,0,0,0,0,0,0,0,0,0,0,0,0,0,0,0,0,0,0,0,0,0,0,0,0,0,0,0,0,0,0,0s0,0,0,0c0,0,0,0,0,0,0,0,0,0,0,0,0,0,0,0,0,0,0,0,0,0,0,0,0,0,0,0,0,0,0,0,0,0,0,0,0,0,0,0,0,0,0,0,0,0,0,0,0,0,0,0,0,0,0,0,0,0,0,0,0,0,0,0,0,0,0,0,0,0,0,0,0,0,0,0,0,0,0,0,0,0,0,0,0,0,0,0,0,0,0,0,0,0,0,0s0,0,0,0c0,0,0,0,0,0s0,0,0,0c0,0,0,0,0,0-3.8-2.4-9.2-4.2-16.9-4.2h-28.5c-19.6,0-33.6,12-37.5,32.2l-14.8,75.9c-2,10.5-.5,19.3,4.5,25.3,1.2,1.5,3,3.1,5.3,4.6,0,0,0,0,0,0,0,0,0,0,0,0s0,0,0,0c0,0,0,0,0,0,0,0,0,0,0,0,0,0,0,0,0,0,0,0,0,0,0,0,0,0,0,0,0,0,0,0,0,0,0,0,0,0,0,0,0,0s0,0,0,0c0,0,0,0,0,0,0,0,0,0,0,0s0,0,0,0c0,0,0,0,0,0,0,0,0,0,0,0s0,0,0,0c0,0,0,0,0,0,0,0,0,0,0,0s0,0,0,0c0,0,0,0,0,0,0,0,0,0,0,0,0,0,0,0,0,0,0,0,0,0,0,0,0,0,0,0,0,0s0,0,0,0c0,0,0,0,0,0,0,0,0,0,0,0,0,0,0,0,0,0s0,0,0,0c0,0,0,0,0,0,0,0,0,0,0,0,0,0,0,0,0,0,0,0,0,0,0,0s0,0,0,0c0,0,0,0,0,0,0,0,0,0,0,0,0,0,0,0,0,0,0,0,0,0,0,0,3.8,2.4,9.2,4.2,16.9,4.2,0,0,48.2,0,48.2,0,7.2,0,12.3-4,13.7-10.8l10.9-56.2c.8-4,.2-7.3-1.8-9.7-.5-.6-1.2-1.3-2.1-1.8,0,0,0,0,0,0s0,0,0,0c0,0,0,0,0,0,0,0,0,0,0,0,0,0,0,0,0,0,0,0,0,0,0,0,0,0,0,0,0,0,0,0,0,0,0,0,0,0,0,0,0,0,0,0,0,0,0,0,0,0,0,0,0,0,0,0,0,0,0,0,0,0,0,0,0,0,0,0,0,0,0,0s0,0,0,0c0,0,0,0,0,0,0,0,0,0,0,0,0,0,0,0,0,0,0,0,0,0,0,0,0,0,0,0,0,0,0,0,0,0,0,0,0,0,0,0,0,0,0,0,0,0,0,0,0,0,0,0,0,0,0,0,0,0,0,0,0,0,0,0,0,0,0,0,0,0,0,0,0,0,0,0,0,0,0,0,0,0,0,0,0,0,0,0,0,0,0,0,0,0,0,0,0,0,0,0,0,0,0,0,0,0,0,0,0,0,0,0,0,0,0,0,0,0,0,0,0,0,0,0,0,0,0,0,0,0,0,0,0,0,0,0,0,0,0,0,0,0,0,0-1.5-1-3.6-1.7-6.5-1.7,0,0-35.1,0-35.1,0-1,0-2,.3-2.8.9l4-20.8c.7-3.6,2.7-5.2,6.3-5.2h5.8c0,.4,0,1-.1,1.7l-1.6,8.5c-.3,1.4,0,2.9,1,4.1.4.4.8.8,1.3,1.1,0,0,0,0,0,0,0,0,0,0,0,0,0,0,0,0,0,0,0,0,0,0,0,0,0,0,0,0,0,0,0,0,0,0,0,0,0,0,0,0,0,0,0,0,0,0,0,0,0,0,0,0,0,0,0,0,0,0,0,0,0,0,0,0,0,0,0,0,0,0,0,0,0,0,0,0,0,0,0,0,0,0,0,0,0,0,0,0,0,0,0,0,0,0,0,0,0,0,0,0,0,0,0,0,0,0,0,0s0,0,0,0c0,0,0,0,0,0,0,0,0,0,0,0,0,0,0,0,0,0,0,0,0,0,0,0,0,0,0,0,0,0,0,0,0,0,0,0,0,0,0,0,0,0,0,0,0,0,0,0,0,0,0,0,0,0,0,0,0,0,0,0,0,0,0,0,0,0,0,0,0,0,0,0,0,0,0,0,0,0,0,0,0,0,0,0,0,0,0,0,0,0,0,0,0,0,0,0,0,0,0,0,0,0,0,0,0,0,0,0,0,0,0,0,0,0,0,0,0,0,0,0,.8.5,1.7.7,2.6.7,0,0,29.3,0,29.3,0,2.4,0,4.4-1.7,4.8-4l2.9-14.7c2-10.5.5-19.3-4.5-25.3Zm-58.5,82.6s0,0,0,0c0,0,0,0,0,0,0,0,0,0,0,0,0,0,0,0,0,0,0,0,0,0,0,0,0,0,0,0,0,0,0,0,0,0,0,0,0,0,0,0,0,0,0,0,0,0,0,0,0,0,0,0,0,0,0,0,0,0,0,0,0,0,0,0,0,0s0,0,0,0c0,0,0,0,0,0,0,0,0,0,0,0,0,0,0,0,0,0,0,0,0,0,0,0,0,0,0,0,0,0,0,0,0,0,0,0,0,0,0,0,0,0,0,0,0,0,0,0,0,0,0,0,0,0,0,0,0,0,0,0,0,0,0,0,0,0,0,0,0,0,0,0,0,0,0,0,0,0,0,0,0,0,0,0,0,0,0,0,0,0,0,0,0,0,0,0,0,0,0,0,0,0,0,0,0,0,0,0,0,0,0,0,0,0,0,0,0,0,0,0,0,0,0,0,0,0,0,0,0,0,0,0,0,0,0,0,0,0,0,0,0,0,0,0,0,0,0,0,0,0,0,0,0,0,0,0,.8.5,1.7.7,2.6.7h3.7s-2.3,11.7-2.3,11.7h-10.9c0,0-.1,0-.2,0,0-.4,0-1,.2-1.7l2.7-13.8c0,.1.2.3.3.4.4.4.8.8,1.3,1.1Z" style="fill:url(#New_Gradient_Swatch_19-3); stroke-width:0px;"/><path d="m775.6,94.8c-3.9-4.8-10.3-7.2-18.8-7.2h-28.5s0,0,0,0c-17.6,0-29.8,10.5-33.3,28.7l-14.8,75.9c-1.8,9.2-.6,16.8,3.6,21.8,3.9,4.8,10.3,7.2,18.8,7.2h48.2s0,0,0,0c5.3,0,8.6-2.5,9.5-7.4l10.9-56.2c.5-2.7.2-4.8-1-6.2-1.1-1.3-2.8-2-5.2-2h-35.6s-4.5,23.3-4.5,23.3h12.7s-4.2,21.9-4.2,21.9h-14.4c-2.8,0-4.8-.7-5.9-2.2-1.2-1.4-1.5-3.5-1-6.3l12.3-63.4c1.1-5.6,4.8-8.7,10.5-8.7h6.4c2.3,0,4,.7,5.1,2,1.2,1.5,1.6,3.7,1,6.4l-1.8,9.3h30.6s3-15.3,3-15.3c1.8-9.2.6-16.8-3.6-21.8Z" style="fill:url(#linear-gradient-8); stroke-width:0px;"/><path d="m225,97c-1.4-1.7-3-3.1-4.9-4.3,0,0,0,0,0,0,0,0,0,0,0,0,0,0,0,0,0,0,0,0,0,0,0,0,0,0,0,0,0,0,0,0,0,0,0,0,0,0,0,0,0,0,0,0,0,0,0,0,0,0,0,0,0,0,0,0,0,0,0,0,0,0,0,0,0,0,0,0,0,0,0,0,0,0,0,0,0,0,0,0,0,0,0,0,0,0,0,0,0,0,0,0,0,0,0,0,0,0,0,0,0,0,0,0,0,0,0,0,0,0,0,0,0,0,0,0,0,0,0,0s0,0,0,0c0,0,0,0,0,0,0,0,0,0,0,0,0,0,0,0,0,0,0,0,0,0,0,0,0,0,0,0,0,0,0,0,0,0,0,0,0,0,0,0,0,0,0,0,0,0,0,0,0,0,0,0,0,0,0,0,0,0,0,0,0,0,0,0,0,0,0,0,0,0,0,0,0,0,0,0,0,0,0,0,0,0,0,0,0,0,0,0,0,0,0,0,0,0,0,0,0,0,0,0,0,0,0,0,0,0,0,0,0,0,0,0,0,0,0,0,0,0,0,0,0,0,0,0,0,0,0,0,0,0,0,0,0,0,0,0,0,0,0,0,0,0,0,0,0,0,0,0,0,0,0,0,0,0,0,0,0,0,0,0,0,0,0,0,0,0,0,0,0,0,0,0,0,0,0,0,0,0,0,0,0,0,0,0,0,0,0,0,0,0,0,0,0,0,0,0,0,0,0,0,0,0,0,0,0,0,0,0,0,0,0,0,0,0,0,0,0,0,0,0,0,0,0,0,0,0,0,0,0,0,0,0,0,0,0,0,0,0,0,0,0,0,0,0,0,0,0,0,0,0,0,0,0,0,0,0,0,0,0,0,0,0,0,0,0,0,0,0,0,0,0,0,0,0,0,0,0,0,0,0,0,0s0,0,0,0c0,0,0,0,0,0,0,0,0,0,0,0,0,0,0,0,0,0,0,0,0,0,0,0s0,0,0,0c0,0,0,0,0,0,0,0,0,0,0,0,0,0,0,0,0,0,0,0,0,0,0,0,0,0,0,0,0,0,0,0,0,0,0,0,0,0,0,0,0,0,0,0,0,0,0,0,0,0,0,0,0,0,0,0,0,0,0,0,0,0,0,0,0,0,0,0,0,0,0,0,0,0,0,0,0,0,0,0,0,0,0,0,0,0,0,0,0,0s0,0,0,0c0,0,0,0,0,0,0,0,0,0,0,0,0,0,0,0,0,0,0,0,0,0,0,0,0,0,0,0,0,0,0,0,0,0,0,0,0,0,0,0,0,0,0,0,0,0,0,0s0,0,0,0c-4.1-2.5-9.3-3.8-15.7-3.8h-12.6c-12.7,0-22.7,5.2-28.8,14.8-.5-.9-1.2-1.8-1.8-2.7-1.4-1.7-3-3.1-4.9-4.3,0,0,0,0,0,0,0,0,0,0,0,0,0,0,0,0,0,0,0,0,0,0,0,0,0,0,0,0,0,0,0,0,0,0,0,0,0,0,0,0,0,0,0,0,0,0,0,0,0,0,0,0,0,0,0,0,0,0,0,0,0,0,0,0,0,0,0,0,0,0,0,0,0,0,0,0,0,0,0,0,0,0,0,0,0,0,0,0,0,0,0,0,0,0,0,0,0,0,0,0,0,0,0,0,0,0,0,0,0,0,0,0,0,0,0,0,0,0,0,0s0,0,0,0c0,0,0,0,0,0,0,0,0,0,0,0,0,0,0,0,0,0,0,0,0,0,0,0,0,0,0,0,0,0,0,0,0,0,0,0,0,0,0,0,0,0,0,0,0,0,0,0,0,0,0,0,0,0,0,0,0,0,0,0,0,0,0,0,0,0,0,0,0,0,0,0,0,0,0,0,0,0,0,0,0,0,0,0,0,0,0,0,0,0,0,0,0,0,0,0,0,0,0,0,0,0,0,0,0,0,0,0,0,0,0,0,0,0,0,0,0,0,0,0,0,0,0,0,0,0,0,0,0,0,0,0,0,0,0,0,0,0,0,0,0,0,0,0,0,0,0,0,0,0,0,0,0,0,0,0,0,0,0,0,0,0,0,0,0,0,0,0,0,0,0,0,0,0,0,0,0,0,0,0,0,0,0,0,0,0,0,0,0,0,0,0,0,0,0,0,0,0,0,0,0,0,0,0,0,0,0,0,0,0,0,0,0,0,0,0,0,0,0,0,0,0,0,0,0,0,0,0,0,0,0,0,0,0,0,0,0,0,0,0,0,0,0,0,0,0,0,0,0,0,0,0,0,0,0,0,0,0,0,0,0,0,0,0,0,0,0,0,0,0,0,0,0,0,0,0,0,0,0,0,0,0s0,0,0,0c0,0,0,0,0,0,0,0,0,0,0,0,0,0,0,0,0,0,0,0,0,0,0,0s0,0,0,0c0,0,0,0,0,0,0,0,0,0,0,0,0,0,0,0,0,0,0,0,0,0,0,0,0,0,0,0,0,0,0,0,0,0,0,0,0,0,0,0,0,0,0,0,0,0,0,0,0,0,0,0,0,0,0,0,0,0,0,0,0,0,0,0,0,0,0,0,0,0,0,0,0,0,0,0,0,0,0,0,0,0,0,0,0,0,0,0,0,0s0,0,0,0c0,0,0,0,0,0,0,0,0,0,0,0,0,0,0,0,0,0,0,0,0,0,0,0,0,0,0,0,0,0,0,0,0,0,0,0,0,0,0,0,0,0,0,0,0,0,0,0s0,0,0,0c-4.1-2.5-9.3-3.8-15.7-3.8h-31.7c-6.5,0-14.6,2.5-17,14.5l-23.7,121.8c-.3,1.4,0,2.9,1,4.1.4.4.8.8,1.3,1.1,0,0,0,0,0,0,0,0,0,0,0,0,0,0,0,0,0,0,0,0,0,0,0,0,0,0,0,0,0,0,0,0,0,0,0,0,0,0,0,0,0,0,0,0,0,0,0,0,0,0,0,0,0,0,0,0,0,0,0,0,0,0,0,0,0,0,0,0,0,0,0,0,0,0,0,0,0,0,0,0,0,0,0,0,0,0,0,0,0,0,0,0,0,0,0,0,0,0,0,0,0,0,0,0,0,0,0,0,0,0,0,0,0,0,0,0,0,0,0,0,0,0,0,0,0,0,0,0,0,0,0,0,0,0,0,0,0,0,0,0,0,0,0,0,0,0,0,0,0,0,0,0,0,0,0,0,0,0,0,0,0,0,0,0,0,0,0,0,0,0,0,0,0,0,0,0,0,0,0,0,0,0,0,0,0,0,0,0,0,0,0,0,0,0,0,0,0,0,0,0,0,0,0,0,0,0,0,0,0,0,0,0,0,0,0,0,0,0,0,0,0,0,0,0,0,0,0,0,0,0,0,0,0,0,0,0,0,0,0,0,0,0,0,0,0,0,0,0,0,0,0,0,0,0,0,0,0,0,0,0,0,0,0,0,0,0,0,0,0,0,0,0,0,0,0,0,0,0,0,0,0,0,0,0,0,0,0,0,0,0,0,0,0,0,0,0,0,0,0,0,0,0,0,0,0,0s0,0,0,0c0,0,0,0,0,0,0,0,0,0,0,0,0,0,0,0,0,0,0,0,0,0,0,0,0,0,0,0,0,0,0,0,0,0,0,0,0,0,0,0,0,0,0,0,0,0,0,0,0,0,0,0,0,0,0,0,0,0,0,0,0,0,0,0,0,0,0,0,0,0,0,0,0,0,0,0,0,0,0,0,0,0,0,0,0,0,0,0,0,0,0,0,0,0,0,0,0,0,0,0,0,0,0,0,0,0,0,0,0,0,0,0,0,0,0,0,0,0,0,0,0,0,0,0,0,0,0,0,0,0,0,0,0,0,0,0,0,0,0,0,0,0,0,0,0,0,0,0,0,0,0,0,0,0,0,0,0,0,0,0,0,0,0,0,0,0,0,0,0,0,0,0,0,0,0,0,0,0,0,0,0,0,0,0,0,0,0,0,0,0,0,0,0,0,0,0,0,0,0,0,0,0,0,0,0,0,0,0,0,0,0,0,0,0,0,0,0,0,0,0,0,0,0,0,0,0,0,0,0,0,0,0,0,0,0,0,0,0,0,0,0,0,0,0,0,0s0,0,0,0c0,0,0,0,0,0s0,0,0,0,0,0,0,0c0,0,0,0,0,0s0,0,0,0c.8.5,1.7.7,2.6.7,0,0,27.4,0,27.4,0,2.3,0,4.4-1.7,4.8-4l8-41.2c24.2-.3,40.7-12.6,45.7-33.8l13.9,23.3s-24.4,0-24.4,0c-2.3,0-4.4,1.7-4.8,4l-3.1,16c-1.9,10-.6,18,4,23.6,1.4,1.7,3,3.1,4.9,4.3,0,0,0,0,0,0,0,0,0,0,0,0,0,0,0,0,0,0,0,0,0,0,0,0,0,0,0,0,0,0,0,0,0,0,0,0,0,0,0,0,0,0,0,0,0,0,0,0,0,0,0,0,0,0,0,0,0,0,0,0,0,0,0,0,0,0,0,0,0,0,0,0,0,0,0,0,0,0,0,0,0,0,0,0,0,0,0,0,0,0,0,0,0,0,0,0,0,0,0,0,0,0,0,0,0,0,0,0,0,0,0,0,0,0,0,0,0,0,0,0,0,0,0,0,0,0,0,0,0,0,0,0,0,0,0,0,0,0,0,0,0,0,0,0,0,0,0,0,0,0,0,0,0,0,0,0,0,0,0,0,0,0,0,0,0,0,0,0,0,0,0,0,0,0,0,0,0,0,0,0,0,0,0,0,0,0,0,0,0,0,0,0,0,0,0,0,0,0,0,0,0,0,0,0,0,0,0,0,0,0,0,0,0,0,0,0,0,0,0,0,0,0,0,0,0,0,0,0s0,0,0,0c0,0,0,0,0,0,0,0,0,0,0,0s0,0,0,0c0,0,0,0,0,0,0,0,0,0,0,0s0,0,0,0c0,0,0,0,0,0,0,0,0,0,0,0s0,0,0,0c0,0,0,0,0,0,0,0,0,0,0,0,0,0,0,0,0,0,0,0,0,0,0,0,0,0,0,0,0,0,0,0,0,0,0,0,0,0,0,0,0,0,0,0,0,0,0,0,0,0,0,0,0,0,0,0,0,0,0,0,0,0,0,0,0,0,0,0,0,0,0,0,0,0,0,0,0,0,0,0,0,0,0,0,0,0,0,0,0,0s0,0,0,0c0,0,0,0,0,0,0,0,0,0,0,0,0,0,0,0,0,0,0,0,0,0,0,0,0,0,0,0,0,0,0,0,0,0,0,0,0,0,0,0,0,0,0,0,0,0,0,0,0,0,0,0,0,0,0,0,0,0,0,0,0,0,0,0,0,0,0,0,0,0,0,0,0,0,0,0,0,0,0,0,0,0,0,0,0,0,0,0,0,0,0,0,0,0,0,0,0,0,0,0,0,0,0,0,0,0,0,0,0,0,0,0,0,0,0,0,0,0,0,0,0,0,0,0,0,0,0,0,0,0,0,0,0,0,0,0,0,0,0,0,0,0,0,0,0,0,0,0,0,0,0,0,0,0,0,0,0,0,0,0,0,0,0,0,0,0,0,0,0,0,0,0,0,0,0,0,0,0,0,0s0,0,0,0c0,0,0,0,0,0,0,0,0,0,0,0s0,0,0,0c0,0,0,0,0,0,4.1,2.5,9.3,3.8,15.7,3.8,0,0,14.3,0,14.3,0,18.3,0,30.9-10.8,34.6-29.7l2.1-10.7c1.8-9.2.7-15.8-3.6-23l-17-27.7s25.6,0,25.6,0c2.3,0,4.4-1.7,4.8-4l3-15.3c2-10,.6-18-4-23.6Z" style="fill:url(#New_Gradient_Swatch_7); stroke-width:0px;"/><path d="m218.4,94.8c-1.5-1.8-3.3-3.3-5.4-4.4,0,0,0,0,0,0s0,0,0,0,0,0,0,0c0,0,0,0,0,0,0,0,0,0,0,0s0,0,0,0,0,0,0,0,0,0,0,0,0,0,0,0,0,0,0,0,0,0,0,0c0,0,0,0,0,0s0,0,0,0,0,0,0,0c0,0,0,0,0,0s0,0,0,0c0,0,0,0,0,0,0,0,0,0,0,0s0,0,0,0c0,0,0,0,0,0,0,0,0,0,0,0,0,0,0,0,0,0,0,0,0,0,0,0,0,0,0,0,0,0,0,0,0,0,0,0,0,0,0,0,0,0,0,0,0,0,0,0,0,0,0,0,0,0,0,0,0,0,0,0,0,0,0,0,0,0,0,0,0,0,0,0s0,0,0,0,0,0,0,0,0,0,0,0,0,0,0,0c0,0,0,0,0,0s0,0,0,0,0,0,0,0,0,0,0,0c-3.6-1.9-8-2.9-13.4-2.9h-12.6c-17.1,0-28.9,10.2-32.3,27.9l-2.5,13.1c-1.7,8.7-.8,14.7,3.3,21.4l18,30.1c-.1,0-.2-.1-.3-.2,0,0,0,0,0,0,0,0,0,0,0,0,0,0,0,0,0,0,0,0,0,0,0,0,0,0,0,0,0,0,0,0,0,0,0,0,0,0,0,0,0,0,0,0,0,0,0,0,0,0,0,0,0,0,0,0,0,0,0,0,0,0,0,0,0,0,0,0,0,0,0,0,0,0,0,0,0,0,0,0,0,0,0,0,0,0,0,0,0,0,0,0,0,0,0,0,0,0,0,0,0,0,0,0,0,0,0,0,0,0,0,0,0,0,0,0,0,0,0,0,0,0,0,0,0,0,0,0,0,0,0,0,0,0,0,0,0,0,0,0,0,0,0,0,0,0,0,0,0,0,0,0,0,0,0,0,0,0,0,0,0,0,0,0,0,0,0,0,0,0,0,0,0,0,0,0,0,0,0,0,0,0,0,0,0,0,0,0,0,0,0,0,0,0,0,0,0,0,0,0,0,0,0,0,0,0,0,0,0,0,0,0,0,0,0,0,0,0,0,0,0,0,0,0,0,0,0,0,0,0,0,0,0,0-.4-.2-.8-.3-1.2-.3h-25.5c-1.3,0-2.3.9-2.6,2.1l-3.1,16c-1.8,9.3-.6,16.6,3.6,21.7,1.5,1.8,3.3,3.3,5.4,4.4,0,0,0,0,0,0,0,0,0,0,0,0,0,0,0,0,0,0,0,0,0,0,0,0,0,0,0,0,0,0,0,0,0,0,0,0,0,0,0,0,0,0,0,0,0,0,0,0,0,0,0,0,0,0s0,0,0,0,0,0,0,0,0,0,0,0,0,0,0,0,0,0,0,0,0,0,0,0,0,0,0,0c0,0,0,0,0,0s0,0,0,0,0,0,0,0c0,0,0,0,0,0s0,0,0,0c0,0,0,0,0,0,0,0,0,0,0,0s0,0,0,0c0,0,0,0,0,0s0,0,0,0,0,0,0,0,0,0,0,0,0,0,0,0,0,0,0,0,0,0,0,0,0,0,0,0c0,0,0,0,0,0s0,0,0,0c0,0,0,0,0,0,0,0,0,0,0,0s0,0,0,0c0,0,0,0,0,0s0,0,0,0c3.6,1.9,8,2.9,13.4,2.9,0,0,14.3,0,14.3,0,17.1,0,28.9-10.2,32.3-27.9l2.1-10.7c1.7-8.7.8-14.7-3.3-21.4l-18.9-30.9c-1.4-2.3-2.3-4.2-1.7-7.2l1-5.3c.3-1.4.8-2.5,1.4-3.1,0,.1,0,.3,0,.4l-2,10.1c-.1.8,0,1.6.6,2.2.3.3.6.5.9.7,0,0,0,0,0,0,0,0,0,0,0,0,0,0,0,0,0,0,0,0,0,0,0,0,0,0,0,0,0,0,0,0,0,0,0,0,0,0,0,0,0,0,0,0,0,0,0,0,0,0,0,0,0,0,0,0,0,0,0,0,0,0,0,0,0,0,0,0,0,0,0,0,0,0,0,0,0,0,0,0,0,0,0,0,0,0,0,0,0,0,0,0,0,0,0,0,0,0,0,0,0,0,0,0,0,0,0,0,0,0,0,0,0,0,0,0,0,0,0,0,0,0,0,0,0,0,0,0,0,0,0,0,0,0,0,0,0,0,0,0,0,0,0,0,0,0,0,0,0,0,0,0,0,0,0,0,0,0,0,0,0,0,0,0,0,0,0,0,0,0,0,0,0,0,0,0,0,0,0,0,0,0,0,0,0,0,0,0,0,0,0,0,0,0,0,0,0,0,0,0,0,0,0,0,0,0,0,0,0,0,0,0,0,0,0,0,0,0,0,0,0,0,0,0,0,0,0,0,0,0,0,0,0,0,.4.2.8.3,1.2.3h25.5c1.3,0,2.3-.9,2.6-2.1l3-15.3c1.8-9.3.6-16.6-3.6-21.7Zm-45.2,92.2l-.5,2.6c-.4,2-1.2,3.4-2,3.4h-1c0-.2,0-.5.1-.8l2.1-11.1c0-.2,0-.5,0-.7,1.1,2,1.8,3.8,1.3,6.5Z" style="fill:url(#New_Gradient_Swatch_4); stroke-width:0px;"/><path d="m91.6,222.9l8.4-43h.9c24.7,0,40.7-12.1,45-34.2l5.7-29.3c1.8-9.3.6-16.6-3.6-21.7-1.5-1.8-3.3-3.3-5.4-4.4,0,0,0,0,0,0s0,0,0,0,0,0,0,0c0,0,0,0,0,0,0,0,0,0,0,0,0,0,0,0,0,0,0,0,0,0,0,0,0,0,0,0,0,0,0,0,0,0,0,0,0,0,0,0,0,0,0,0,0,0,0,0,0,0,0,0,0,0,0,0,0,0,0,0,0,0,0,0,0,0,0,0,0,0,0,0,0,0,0,0,0,0,0,0,0,0,0,0,0,0,0,0,0,0,0,0,0,0,0,0,0,0,0,0,0,0,0,0,0,0,0,0,0,0,0,0,0,0,0,0,0,0,0,0,0,0,0,0,0,0,0,0,0,0,0,0,0,0,0,0,0,0,0,0,0,0,0,0,0,0,0,0,0,0,0,0,0,0,0,0,0,0,0,0,0,0,0,0,0,0,0,0,0,0,0,0,0,0s0,0,0,0,0,0,0,0,0,0,0,0c0,0,0,0,0,0s0,0,0,0,0,0,0,0,0,0,0,0c-3.6-1.9-8-2.9-13.4-2.9h-31.7c-8.2,0-13.1,4.2-14.7,12.6l-23.7,121.8c-.1.8,0,1.6.6,2.2.3.3.6.5.9.7,0,0,0,0,0,0,0,0,0,0,0,0,0,0,0,0,0,0,0,0,0,0,0,0,0,0,0,0,0,0,0,0,0,0,0,0,0,0,0,0,0,0,0,0,0,0,0,0,0,0,0,0,0,0,0,0,0,0,0,0,0,0,0,0,0,0,0,0,0,0,0,0,0,0,0,0,0,0,0,0,0,0,0,0,0,0,0,0,0,0,0,0,0,0,0,0,0,0,0,0,0,0,0,0,0,0,0,0,0,0,0,0,0,0,0,0,0,0,0,0,0,0,0,0,0,0,0,0,0,0,0,0,0,0,0,0,0,0,0,0,0,0,0,0,0,0,0,0,0,0,0,0,0,0,0,0,0,0,0,0,0,0,0,0,0,0,0,0,0,0,0,0,0,0,0,0,0,0,0,0,0,0,0,0,0,0,0,0,0,0,0,0,0,0,0,0,0,0,0,0,0,0,0,0,0,0,0,0,0,0,0,0,0,0,0,0,0,0,0,0,0,0,0,0,0,0,0,0,0,0,0,0,0,0,.4.2.8.3,1.2.3h27.4c1.3,0,2.3-.9,2.6-2.1Zm20.7-106.4h3.3c0,.6,0,1.4-.2,2.6l-3.6,18.4c-.6,2.8-2.2,5.1-4.9,6.9l5.4-27.9Z" style="fill:#525153; stroke-width:0px;"/><path d="m143.3,93.6c-3.6-4.3-9.4-6.5-17.2-6.5h-31.7s0,0,0,0c-7.2,0-11.4,3.6-12.8,11l-23.8,122.6h28.8s8.8-45.1,8.8-45.1h2.4s0,0,0,0c23.7,0,39-11.6,43.1-32.6l5.7-29.3c1.7-8.7.6-15.5-3.2-20.1Zm-26.4,25.2l-3.6,18.4c-1.1,5.5-5.4,9.2-12.8,11l7-36h5.1c1.8,0,3,.4,3.7,1.3.9,1,1,2.8.6,5.3Z" style="fill:url(#linear-gradient-9); stroke-width:0px;"/><path d="m213.8,93.7c-3.6-4.3-9.4-6.5-17.2-6.5h-12.6s0,0,0,0c-16.3,0-27.1,9.4-30.4,26.3l-2.5,13.1c-1.6,8.1-.7,13.7,3,20l18.8,31.5c1.5,2.5,2.6,4.9,1.9,8.6l-.5,2.6c-.6,3.1-2.1,5-4,5h-3.8c-.6,0-1.1-.2-1.4-.6-.6-.7-.8-2.3-.4-4.1l2.3-11.9h-26.9s-3.2,16.6-3.2,16.6c-1.7,8.7-.6,15.5,3.2,20.1,3.6,4.3,9.4,6.5,17.2,6.5h14.2s0,0,0,0c16.3,0,27.1-9.4,30.4-26.3l2.1-10.7c1.6-8.1.7-13.7-3-20l-18.9-31c-1.5-2.5-2.6-4.9-1.9-8.6l1-5.3c.6-3.1,2.1-5,4-5h2.1c.6,0,1.1.2,1.4.6.6.7.8,2.3.4,4.1l-2.1,10.9h26.9s3.1-15.8,3.1-15.8c1.7-8.7.6-15.5-3.2-20.1Z" style="fill:url(#linear-gradient-10); stroke-width:0px;"/></g></svg>