<svg  xmlns="http://www.w3.org/2000/svg" width="512" height="80" viewBox="0 0 512 80" className="svg-logo">
							<metadata><!--?xpacket begin="&#xFEFF;" id="W5M0MpCehiHzreSzNTczkc9d"?-->
							<x:xmpmeta xmlns:x="adobe:ns:meta/" x:xmptk="Adobe XMP Core 5.6-c142 79.160924, 2017/07/13-01:06:39        ">
							<rdf:rdf xmlns:rdf="http://www.w3.org/1999/02/22-rdf-syntax-ns#">
							<rdf:description rdf:about=""></rdf:description>
							</rdf:rdf>
							</x:xmpmeta><!--?xpacket end="w"?--></metadata>
							<defs><style>.cls-1 {
									fill: #56bae9;
								  }
							
								  .cls-1, .cls-2 {
									fill-rule: evenodd;
								  }
							
								  .cls-2 {
									fill: #ffffff;
								  }</style></defs>
							<path className="cls-1" d="M107.18,21.763a42.725,42.725,0,0,0-15.4-11.742C76.859,3.131,61.453,2.269,45.746,6.829,36.7,9.457,28.734,14,22.511,21.246,13.1,32.21,12.488,46.131,20.874,57.728a39.653,39.653,0,0,0,10.877,10.1c10,6.421,21.064,9.022,32.808,9.174a67.187,67.187,0,0,0,15.727-1.879c9.646-2.413,18.285-6.673,25.249-13.965C116.509,49.663,117.172,33.974,107.18,21.763ZM65.458,72.706c-10.155.081-19.891-1.684-28.75-6.923C29.078,61.27,23.617,54.988,21.62,46.105a26.907,26.907,0,0,1,.15-12.463,4.339,4.339,0,0,1,.678-1.507c5.822-7.887,17.439-10.411,25.494-3.707a59.965,59.965,0,0,1,10.316,11.5c4.162,5.833,8.2,11.755,12.339,17.6,1.208,1.706,2.548,3.325,3.909,4.915a29.723,29.723,0,0,0,8.965,7.462A59.8,59.8,0,0,1,65.458,72.706ZM99.691,60.478a5.686,5.686,0,0,1-2.6,1.169c-7.042,1.759-13.171.078-18.53-4.847-4.654-4.277-8.459-9.258-12.321-14.214-4.515-5.8-9.113-11.526-13.706-17.259A24.136,24.136,0,0,0,50.19,22.94c-4.13-3.89-8.636-7.05-14.605-7.325-0.031-.138-0.061-0.276-0.092-0.414,2.489-1.186,4.918-2.526,7.477-3.532C52.2,8.045,61.8,7.195,71.586,8.156a51.8,51.8,0,0,1,19.66,5.7c7.607,4.078,13.569,9.758,16.046,18.249C110.473,43,107.668,52.506,99.691,60.478Z"></path>
							<path className="cls-2" d="M191.621,65.323h10.147l4.943-41.662h-7.576c0.254-2.068.486-3.957,0.721-5.879h22.8c-2.154,17.888-4.3,35.691-6.446,53.518H175.727c2.615-21.838,5.221-43.584,7.831-65.371h15.158C196.353,25.71,194,45.413,191.621,65.323Zm-20.842,5.972H130.3c1.643-13.873,3.276-27.652,4.921-41.546h22.789c-0.23,1.944-.452,3.829-0.692,5.857h-7.574c-1.191,9.956-2.365,19.776-3.561,29.778,3.284,0,6.4.023,9.514-.044a1.342,1.342,0,0,0,.686-0.977c0.7-5.522,1.348-11.051,2.012-16.578q1.364-11.354,2.728-22.709c0.049-.413.065-0.83,0.108-1.394H135.974c0.243-2.035.467-3.91,0.7-5.872h40.481Q173.963,44.586,170.779,71.295Zm274.552,0.012H404.847c2.127-17.851,4.244-35.619,6.372-53.487H451.7c-1.637,13.83-3.269,27.6-4.912,41.478H423.994c0.237-1.987.462-3.87,0.7-5.869h7.57c1.19-9.945,2.364-19.774,3.55-29.695h-10.08c-1.659,13.8-3.321,27.613-5,41.61h25.295C445.786,67.412,445.567,69.287,445.331,71.307Zm-136.092,0H268.761c2.125-17.843,4.24-35.6,6.37-53.472h15.158c-1.871,15.779-3.745,31.576-5.64,47.549,3.285,0,6.4.023,9.513-.044a1.348,1.348,0,0,0,.685-0.978c0.7-5.567,1.356-11.14,2.022-16.711q1.722-14.417,3.448-28.833c0.039-.322.137-0.637,0.224-1.026H315.62C313.49,35.655,311.368,53.458,309.239,71.307Zm80.425-47.584H379.585c-1.9,15.818-3.811,31.628-5.728,47.539H358.7c2.122-17.809,4.237-35.57,6.365-53.436h40.484c-2.127,17.845-4.248,35.624-6.375,53.469h-15.16C385.9,55.411,387.778,39.607,389.664,23.723Zm81.313-.1c-1.685,14.032-3.34,27.812-5.006,41.7h10.061c0.26-2.1.525-4.174,0.773-6.254,0.3-2.508.559-5.022,0.915-7.522a1.348,1.348,0,0,1,.83-0.958c4.716-.048,9.433-0.018,14.151,0a1.145,1.145,0,0,1,.326.17Q491.8,60.98,490.553,71.29H450.1c0.356-3.056.695-6.019,1.048-8.98q1.764-14.771,3.538-29.541c1.034-8.639,2.055-17.28,3.136-25.914a1.406,1.406,0,0,1,.974-0.943c4.576-.06,9.155-0.037,13.733-0.027a2.272,2.272,0,0,1,.506.152c-0.453,3.835-.906,7.668-1.377,11.652H497c-0.241,2.027-.464,3.9-0.7,5.93H470.977ZM322.013,5.958h15.149c-0.47,3.93-.928,7.762-1.406,11.752h25.353c-0.243,2.033-.468,3.911-0.711,5.939H335.085c-1.672,13.921-3.327,27.7-5.014,41.749h2.876c2.009,0,4.019-.046,6.026.02a1.13,1.13,0,0,0,1.36-1.271c0.436-4.14.948-8.272,1.442-12.406,0.044-.365.152-0.722,0.242-1.138h15.137c-0.834,6.938-1.656,13.787-2.486,20.7H314.189Q318.106,38.578,322.013,5.958ZM228.987,17.778c-2.124,17.815-4.245,35.593-6.384,53.533h40.483l6.381-53.533h-40.48Zm19.6,47.518H238.515c0.345-2.94.673-5.807,1.017-8.675,1.172-9.743,2.377-19.482,3.51-29.229,0.434-3.726.359-3.737,4.162-3.733q2.94,0,5.878.026a2.383,2.383,0,0,1,.479.177C251.905,37.66,250.251,51.431,248.586,65.3Z"></path>
							</svg>