<svg width="161" height="70" viewBox="0 0 161 70" fill="none" xmlns="http://www.w3.org/2000/svg">
<path d="M61.8678 26.7934C61.6718 23.8398 61.1676 20.196 58.563 18.3465C54.754 15.6413 50.861 20.1132 48.9286 23.0945C48.3684 23.9502 47.9203 24.8335 47.4162 25.7169C47.3882 25.5236 47.3882 25.358 47.3602 25.1648C47.1641 23.3705 46.9961 21.521 46.548 19.7544C46.2959 18.7054 46.0158 17.5184 45.2876 16.6627C44.5595 15.8345 43.3552 16.6627 43.4392 17.7116C43.4952 18.4846 43.6352 23.7846 43.6632 25.4684C43.7192 29.5815 43.3271 33.6669 43.2431 37.7523C43.1871 40.5128 47.2201 40.9268 48.0043 38.3872C48.5925 36.5101 48.9846 34.6054 49.5727 32.7284C50.1609 30.9065 51.1131 29.195 52.0653 27.5388C52.9336 26.0481 55.0341 22.7908 55.7343 22.6804C55.8743 22.6528 55.9303 22.846 55.9583 22.9288C56.1544 23.4533 56.6025 25.6893 56.6585 27.3455C56.7985 30.7961 56.7145 34.1086 55.7903 37.4763C55.1461 39.8227 58.4229 41.0925 59.6833 39.1049C61.1116 36.8414 61.7558 34.6055 61.9798 31.9554C62.1759 30.2716 62.0078 28.5049 61.8678 26.7934C62.0078 28.5049 61.6718 23.8398 61.8678 26.7934Z" fill="#4DA84D"/>
<path d="M92.4515 15.1996C94.8321 13.1569 97.0727 11.0038 99.4253 8.93348C101.274 7.30483 98.8932 4.32357 96.7926 5.59336C93.8799 7.33243 91.1072 9.15431 88.5025 11.3074C85.7578 13.571 83.0972 15.9726 80.5485 18.457C78.0559 20.9137 75.6473 23.4809 73.3507 26.1861C72.9306 25.082 72.5105 23.9502 72.0624 22.8736C71.3622 21.1622 70.55 19.4783 69.7378 17.8221C68.9256 16.1934 67.6373 14.1783 67.6373 14.1507C67.3292 13.6538 66.433 13.6262 66.0689 14.1783C65.8168 14.5648 66.7971 18.3189 67.1051 19.5059C68.0574 23.0669 69.2617 26.5726 70.2139 30.1336C68.9536 31.7898 67.7493 33.5013 66.601 35.268C64.7245 38.1388 63.0441 41.1201 61.8678 44.3222C60.8035 47.1654 60.2154 50.7263 60.3274 53.9836C60.4114 56.7717 60.9996 60.2222 62.9041 62.403C64.8086 64.6113 67.6653 64.7217 70.1859 63.5623C74.555 61.5472 76.5435 55.5847 77.1597 51.2508C77.8598 46.2268 77.4117 41.0925 76.3195 36.1513C76.0674 34.9919 75.7593 33.8049 75.4512 32.6455C78.448 28.8086 81.7808 25.2476 85.2537 21.8799C87.5503 19.5611 89.9589 17.3252 92.4515 15.1996ZM68.5895 58.0415C68.2534 58.3451 67.3572 58.9248 67.1051 58.6488C66.9371 58.4279 66.629 57.6826 66.461 57.1305C66.0969 55.8607 66.0689 54.9498 66.0409 53.5696C65.9849 50.8092 66.405 47.9659 67.4972 45.4263C68.6735 42.7211 70.1579 40.1539 71.7823 37.6971C72.1744 40.2643 72.4265 42.8591 72.4265 45.5091C72.4265 49.843 71.4462 55.4743 68.5895 58.0415Z" fill="#4DA84D"/>
<path d="M114.745 36.8966C118.61 36.5378 121.271 33.4737 122.727 30.1612C124.071 27.1523 124.604 23.9502 124.464 20.6929C124.324 17.4356 123.147 13.5986 119.702 12.3564C116.145 11.059 113.513 14.4267 111.944 17.0491C109.984 20.334 108.64 24.033 107.407 27.6492C105.363 33.6393 103.458 39.6846 101.946 45.8128C100.602 51.2508 98.5291 61.4092 98.165 63.8108C97.9969 64.9149 97.6888 66.1571 97.9969 67.2889C98.0249 67.4269 98.0809 67.5649 98.1089 67.703C98.137 67.7858 98.137 67.841 98.165 67.8686C98.5291 70.491 100.742 70.4634 101.834 69.028C102.534 68.0894 103.178 66.5712 103.402 65.6879C103.934 63.5899 105.727 54.4805 106.931 49.2909C107.967 44.9018 109.144 40.568 110.488 36.2617C111.748 36.869 113.205 37.0346 114.745 36.8966ZM111.552 33.0596C111.608 32.894 111.636 32.756 111.692 32.5903C112.897 28.9466 114.045 25.22 115.725 21.7695C116.314 20.5549 116.986 19.1747 117.826 18.1257C117.938 17.9601 118.078 17.8221 118.218 17.684C118.358 17.8221 118.414 17.9049 118.526 18.0981C119.198 19.4231 119.198 21.2726 119.17 22.7632C119.114 24.7783 118.722 26.683 117.966 28.5877C117.21 30.4924 115.837 32.3143 113.793 32.7836C113.065 33.0044 112.309 33.0872 111.552 33.0596Z" fill="#4DA84D"/>
<path d="M13.7797 18.2085C14.7319 17.7945 20.3053 15.7241 22.1258 15.0616C25.7667 13.6814 29.4636 12.384 33.1886 11.1694C40.6105 8.71265 39.7422 8.90588 47.1921 6.4491C51.2811 5.09649 49.6287 -0.838431 45.4277 0.100114C37.0536 1.922 21.2576 7.33243 17.2526 8.74025C15.3201 9.40275 13.4436 10.1205 11.5671 10.9762C7.8422 12.6325 7.53412 16.083 7.53412 16.1934C7.53412 16.2486 7.50612 16.3038 7.50612 16.4142C7.4221 16.8559 7.36608 17.27 7.28206 17.684C6.91797 19.8096 6.32982 21.8799 5.82569 23.9778C4.6494 28.919 3.44509 33.8877 2.01673 38.7737C1.54061 40.4576 1.14852 42.2242 0.700403 43.9357C0.280297 45.6472 0.0282336 47.3862 0.000226565 49.1805C-0.0277805 50.7816 2.54887 51.6649 3.24905 50.0362C5.8537 44.1565 7.75818 37.9456 9.63465 31.8174C10.7269 28.3117 11.7632 24.7783 12.7714 21.2726C13.0795 20.2236 13.4156 19.2299 13.7797 18.2085Z" fill="#4DA84D"/>
<path d="M29.8277 17.7392C28.3154 18.6226 27.3351 19.8924 26.6349 21.4382C25.7667 23.2601 24.9825 25.1372 24.2543 27.0419C22.798 30.9065 21.3696 34.7711 19.8572 38.6081C16.7765 46.4477 15.9642 47.469 13.4716 55.5019C12.9395 57.2134 12.6594 58.7868 12.6874 60.5811C12.7154 62.8446 15.5722 63.3967 16.7765 61.6852C18.7369 58.8696 20.6694 52.4102 21.9017 49.0977C23.1621 45.7024 24.4224 42.3346 25.6827 38.9393C26.803 39.2706 27.9793 39.4086 28.6514 39.3534C32.0683 39.1049 35.0931 36.1789 36.5494 33.3081C38.1738 30.1336 38.4539 26.2966 37.7817 22.8184C37.0816 19.4507 33.6367 15.5033 29.8277 17.7392ZM33.1886 27.1799C33.1606 29.6091 32.4324 31.9278 30.78 33.7773C29.9678 34.6883 28.9035 35.4612 27.7272 35.7648C27.4191 35.8476 27.083 35.8753 26.775 35.9029C27.5032 33.8877 28.2313 31.845 28.9315 29.8023C29.4356 28.2841 29.9958 26.7934 30.5839 25.3028C30.976 24.3367 31.3681 23.0945 32.0683 22.3216C32.0963 22.2939 32.1243 22.2387 32.1523 22.2111C32.4044 22.3768 32.5164 22.7356 32.6284 22.9841C33.1606 24.3367 33.2166 25.7445 33.1886 27.1799Z" fill="#4DA84D"/>
<path d="M160.453 17.5184C157.148 17.27 150.174 17.4632 151.294 22.4872C151.63 24.033 152.723 25.4408 153.563 26.7658C154.571 28.4221 155.607 30.1888 155.972 32.0935C156.224 33.4185 156.056 34.2466 155.523 35.2403C154.543 37.1726 152.835 38.7737 148.326 40.9544C146.757 41.7274 144.769 42.3899 142.78 42.9972C137.403 44.6534 131.969 45.7024 126.312 46.6133C122.587 47.2206 118.33 47.5795 115.249 47.9659C113.821 48.1315 112.589 49.0425 112.589 50.5883C112.589 51.9133 113.793 53.3211 115.249 53.2107C122.279 52.6034 129.253 51.5821 136.115 50.0086C140.512 48.9873 144.825 47.6347 148.942 45.7852C152.387 44.2393 155.803 42.1966 158.1 39.1602C161.321 34.9367 160.173 30.0231 157.428 25.8825C156.784 24.9164 156.084 24.0054 155.411 23.0669C155.159 22.6804 154.487 21.6314 154.515 21.3554C154.543 21.0242 154.879 20.8309 155.327 20.6101C157.176 19.6991 158.856 19.2299 160.593 18.595C161.209 18.3741 161.097 17.5736 160.453 17.5184Z" fill="#4DA84D"/>
<path d="M133.678 32.9492C135.358 31.569 136.535 29.5539 138.075 28.0356C138.803 27.3179 139.559 26.6002 140.4 26.0205C140.652 25.8549 140.904 25.7169 141.156 25.6065C141.38 26.0205 141.52 27.0971 141.576 27.7044C141.884 31.2101 141.52 34.8263 141.632 38.2768C141.688 40.0987 144.041 40.2919 144.713 38.6909C145.777 36.1513 146.085 33.3633 146.225 30.6304C146.365 28.1461 146.169 25.3856 145.077 23.1221C143.62 20.1132 140.008 20.7757 137.767 22.432C136.227 23.5637 134.826 24.9716 133.65 26.4346C133.482 26.6554 133.314 26.8763 133.146 27.0971C133.146 26.269 133.146 25.4408 133.174 24.5851C133.23 22.1835 133.538 19.7544 133.426 17.3804C133.426 16.1934 131.717 15.8622 131.241 17.0767C130.373 19.3127 129.981 21.7419 129.589 24.1158C129.225 26.4346 128.805 28.919 129.029 31.2653C129.309 33.943 131.773 34.5226 133.678 32.9492Z" fill="#4DA84D"/>
<path d="M105.279 16.0278C106.987 14.5371 108.388 12.7429 109.564 10.8382C110.124 9.92723 111.384 6.83556 109.144 6.91837C107.883 6.97358 103.682 11.7215 102.702 14.5371C102.142 16.1106 104.214 16.9387 105.279 16.0278Z" fill="#4DA84D"/>
<path d="M100.798 30.4648C102.282 26.6278 99.9294 22.9841 96.0644 21.9627C93.7398 21.3554 91.3312 22.2111 89.7068 23.895C88.2225 25.4408 87.7463 27.7044 87.9704 29.7747C88.0544 30.6304 88.5305 31.2653 89.1467 31.569C89.2027 33.0596 90.9111 34.357 92.1715 34.7987C95.7283 36.0961 99.4813 33.8049 100.798 30.4648ZM94.412 30.7409C93.9079 30.9341 93.2357 31.0445 92.7036 30.8237C92.4795 30.7409 92.2835 30.6304 92.0874 30.52C92.0594 30.52 92.0594 30.52 92.0594 30.4924C92.7036 29.4158 93.1797 27.8976 94.244 27.3455C95.3363 26.7658 96.0084 27.6492 96.0644 28.3393C96.1485 29.0846 95.4763 30.3544 94.412 30.7409Z" fill="#4DA84D"/>
</svg>
