<svg xmlns="http://www.w3.org/2000/svg" width="206" height="45" viewBox="0 0 206 45">
							<path className="atcomLogo" d="M271.08 1984.88a5.99 5.99 0 0 1-5.99-5.98l-0.91-19.63-13.26 17.03h-0.32l-13.19-16.83-0.91 19.43a5.99 5.99 0 0 1-5.99 5.98H229.6l1.82-43.28 19.51 24.54 19.26-24.54L272 1984.88h-0.92Zm-54.4-5.38a23.31 23.31 0 0 1-7.39 4.82 23.01 23.01 0 0 1-24.68-4.82 21.28 21.28 0 0 1-6.59-15.65 21.55 21.55 0 0 1 6.59-15.72 22.56 22.56 0 0 1 7.36-4.77 23.54 23.54 0 0 1 17.36 0 22.86 22.86 0 0 1 7.34 4.77 22.38 22.38 0 0 1 4.93 7.23 22.12 22.12 0 0 1 0 16.99A22.06 22.06 0 0 1 216.69 1979.5Zm-1.75-21.76a16.29 16.29 0 0 0-3.37-5.14 14.93 14.93 0 0 0-4.95-3.42 15.14 15.14 0 0 0-5.93-1.18 15.38 15.38 0 0 0-5.94 1.17 15.15 15.15 0 0 0-5 3.43 15.44 15.44 0 0 0-3.37 5.1 16.6 16.6 0 0 0-1.14 6.14 16.33 16.33 0 0 0 1.14 6.06 15.82 15.82 0 0 0 3.37 5.09 14.95 14.95 0 0 0 4.99 3.44 15.28 15.28 0 0 0 5.96 1.18 15.01 15.01 0 0 0 5.87-1.18 15.48 15.48 0 0 0 5.01-3.44 15.84 15.84 0 0 0 4.54-11.15A16.17 16.17 0 0 0 214.94 1957.74Zm-44.71-8.03a6.07 6.07 0 0 1-2.3-0.45l-0.05-0.02a17.22 17.22 0 0 0-6.5-1.3 15.83 15.83 0 1 0 0 31.65 17.07 17.07 0 0 0 6.4-1.26l0.11-0.05a6.09 6.09 0 0 1 2.27-0.44 5.99 5.99 0 0 1 5 2.68h-0.02a22.18 22.18 0 1 1 0.07-33.46h0A5.98 5.98 0 0 1 170.23 1949.71Zm-38.16-1.21H123.54l0 30.4a5.99 5.99 0 0 1-5.99 5.98h-0.91V1948.6c0-0.03 0-0.06 0-0.1H102.14a6 6 0 0 1 6-5.88h29.92A5.98 5.98 0 0 1 132.06 1948.5Zm-28.42 36.38a6.01 6.01 0 0 1-5.45-3.58l-2.21-4.99H83.28a6 6 0 0 1 6-5.88h4.11l-6.72-15.19L74.8 1981.42a5.98 5.98 0 0 1-5.43 3.46H66L86.53 1941l20.49 43.88h-3.38Z" transform="translate(-66 -1941)" fill="#ed1941"></path>
						</svg>	